<svg xmlns="http://www.w3.org/2000/svg" xmlns:xlink="http://www.w3.org/1999/xlink" viewBox="0 0 57 65" fill="#fff" fill-rule="evenodd" stroke="#000" stroke-linecap="round" stroke-linejoin="round"><use xlink:href="#A" x=".5" y=".5"/><symbol id="A" overflow="visible"><path d="M41.927 11.9c-3.267-2.036-6.35-2.837-9.432-4.87-1.912-1.295-4.562-4.38-6.784-7.03-.43 4.254-1.726 5.98-3.206 7.214-3.145 2.466-5.118 3.207-7.83 4.687C12.393 13.071 0 20.471 0 36.377S13.38 64 28.239 64s27.747-10.8 27.747-27.13-12.085-23.738-14.06-24.97zm.358 46.297c-.31.31-3.146 2.28-6.474 2.6s-7.83.494-10.544-1.973c-.43-.432-.308-1.048 0-1.294s.556-.432.925-.432.31 0 .494.123c1.231.977 3.081 1.779 7.027 1.779s6.72-1.1 7.953-2.035c.556-.432.802-.06.863.185s.185.616-.245 1.047zm-10.792-5.611c.68-.616 1.79-1.602 2.837-2.035s1.604-.37 2.6-.37 2.034.06 2.775.555 1.17 1.602 1.418 2.22 0 .985-.492 1.232c-.432.248-.494.123-.925-.677s-.803-1.604-2.96-1.604-2.836.74-3.885 1.604-1.418 1.17-1.787.677-.248-.986.43-1.602zm16.34.494c-2.22-.185-6.66-7.09-9.497-7.214-3.575-.123-11.345 7.46-17.45 7.46-3.698 0-4.81-.554-6.042-1.356-1.85-1.295-2.775-3.268-2.713-5.98.063-4.81 4.563-9.3 10.235-9.372 7.214-.06 12.208 7.154 15.847 7.092 3.083-.06 9.002-6.104 11.9-6.104 3.083 0 3.947 3.206 3.947 5.118s-.618 5.364-2.098 7.52-2.405 2.96-4.13 2.837z" stroke="none" fill="#0073ba" fill-rule="nonzero"/></symbol></svg>