<?xml version="1.0" standalone="no"?>
<!DOCTYPE svg PUBLIC "-//W3C//DTD SVG 20010904//EN"
 "http://www.w3.org/TR/2001/REC-SVG-20010904/DTD/svg10.dtd">
<svg version="1.0" xmlns="http://www.w3.org/2000/svg"
 width="540.000000pt" height="330.000000pt" viewBox="0 0 540.000000 330.000000"
 preserveAspectRatio="xMidYMid meet">

<g transform="translate(0.000000,330.000000) scale(0.100000,-0.100000)"
fill="#2c3989" stroke="none">
<path d="M3910 3133 c-496 -48 -898 -260 -1158 -611 -59 -80 -179 -280 -171
-286 2 -1 65 -9 139 -17 l135 -14 42 78 c204 376 524 611 929 682 114 20 345
20 460 0 397 -70 651 -306 719 -670 14 -71 16 -127 12 -265 -4 -152 -8 -190
-35 -291 -51 -197 -120 -324 -252 -463 -133 -140 -273 -216 -399 -216 -97 0
-114 15 -119 107 -6 96 4 151 124 701 57 266 102 487 100 491 -9 14 -193 19
-331 10 -161 -11 -260 -35 -373 -93 -185 -96 -327 -241 -426 -436 -99 -195
-134 -336 -143 -570 -7 -191 4 -249 60 -322 123 -160 384 -113 647 118 30 26
63 54 72 62 17 14 18 9 12 -104 -6 -119 -6 -119 20 -143 35 -33 108 -38 237
-16 324 54 633 251 832 530 70 99 152 273 182 389 31 122 45 296 34 441 -30
402 -232 675 -604 818 -195 75 -509 113 -745 90z m255 -965 c-3 -13 -46 -216
-96 -453 -50 -236 -93 -433 -95 -437 -2 -4 -35 -27 -72 -52 -139 -92 -335
-146 -418 -115 -31 11 -44 25 -64 64 -23 46 -25 60 -25 190 1 155 18 253 67
395 109 312 269 427 596 429 112 1 112 1 107 -21z"/>
<path d="M360 2650 c-58 -4 -120 -8 -137 -9 l-33 -1 0 -849 0 -849 33 -6 c17
-3 132 -10 254 -16 395 -19 563 15 695 137 127 120 165 370 81 543 -51 106
-179 203 -316 240 l-48 13 48 16 c202 68 309 247 273 458 -27 163 -134 260
-340 308 -87 20 -345 27 -510 15z m385 -132 c169 -36 251 -170 225 -362 -14
-100 -51 -170 -105 -201 -63 -38 -161 -55 -312 -55 l-133 0 0 315 0 314 78 4
c96 4 182 -1 247 -15z m69 -766 c164 -60 234 -166 235 -358 2 -193 -52 -293
-176 -327 -83 -24 -196 -31 -336 -22 l-117 7 0 365 0 365 168 -4 c138 -4 177
-8 226 -26z"/>
<path d="M1650 2585 l-75 -75 78 -77 77 -78 75 75 c41 41 75 80 75 86 0 11
-140 144 -151 144 -3 0 -38 -34 -79 -75z"/>
<path d="M2448 2084 c-125 -38 -250 -169 -263 -276 -7 -56 6 -131 30 -177 37
-72 150 -145 313 -203 128 -44 207 -84 236 -119 21 -25 26 -41 26 -87 0 -106
-44 -156 -154 -175 -95 -16 -200 7 -326 70 -52 26 -98 49 -101 51 -5 2 -69
-139 -69 -153 0 -15 157 -78 227 -90 211 -38 370 -2 488 111 69 66 105 150
105 243 0 40 -5 92 -12 113 -28 93 -147 179 -344 249 -114 40 -192 80 -224
114 -20 22 -25 37 -24 80 0 31 6 60 15 71 47 56 203 59 456 8 31 -6 31 -6 43
49 24 116 27 110 -70 124 -119 16 -294 15 -352 -3z"/>
<path d="M1620 1505 l0 -575 115 0 115 0 0 575 0 575 -115 0 -115 0 0 -575z"/>
<path d="M2741 824 c-36 -14 -91 -27 -122 -31 l-58 -6 16 -31 c30 -59 111
-171 167 -233 171 -187 453 -325 743 -364 130 -17 442 -6 564 20 204 44 378
118 556 237 62 41 113 77 113 80 0 9 -60 94 -66 94 -3 0 -54 -30 -112 -67
-243 -153 -489 -223 -778 -223 -255 0 -468 57 -635 171 -123 83 -230 201 -290
321 -16 32 -30 57 -32 57 -1 -1 -31 -12 -66 -25z"/>
<path d="M200 701 c-25 -24 -30 -38 -30 -76 0 -64 31 -95 95 -95 30 0 45 4 45
13 0 9 -11 12 -33 9 -77 -9 -112 84 -52 135 21 19 35 23 57 19 21 -4 28 -2 26
7 -3 6 -21 13 -41 15 -30 3 -43 -2 -67 -27z"/>
<path d="M387 719 c-23 -13 -47 -62 -47 -94 0 -33 24 -81 45 -89 21 -8 69 -8
90 0 23 9 45 57 45 99 0 68 -77 117 -133 84z m77 -30 c20 -15 26 -29 26 -58 0
-100 -104 -113 -117 -14 -5 35 -2 45 20 67 31 31 37 32 71 5z"/>
<path d="M577 723 c-11 -11 -8 -193 3 -193 6 0 10 18 10 41 0 38 1 40 28 37
22 -2 29 -10 36 -40 12 -49 41 -53 31 -5 -4 17 -11 38 -15 46 -5 9 -2 24 7 37
19 30 9 62 -24 75 -28 11 -67 12 -76 2z m64 -23 c28 -15 24 -49 -7 -60 -33
-13 -44 -6 -44 29 0 42 14 50 51 31z"/>
<path d="M747 723 c-11 -10 -8 -193 2 -193 6 0 11 17 13 38 3 34 6 37 36 40
63 6 83 91 26 112 -29 12 -68 13 -77 3z m64 -23 c37 -20 17 -70 -28 -70 -19 0
-23 5 -23 33 0 48 13 57 51 37z"/>
<path d="M933 715 c-27 -19 -47 -78 -38 -113 14 -58 72 -88 130 -66 38 15 57
97 34 147 -20 44 -85 60 -126 32z m87 -25 c40 -40 16 -140 -33 -140 -62 1 -90
88 -42 135 29 30 49 31 75 5z"/>
<path d="M1127 723 c-11 -11 -8 -193 3 -193 6 0 10 18 10 41 0 38 2 40 27 37
20 -2 29 -11 38 -37 12 -37 35 -54 35 -27 0 9 -6 32 -14 50 -12 29 -12 36 1
49 22 22 9 65 -23 77 -29 12 -68 13 -77 3z m64 -23 c25 -14 24 -46 -2 -60 -30
-16 -49 -5 -49 28 0 43 14 51 51 32z"/>
<path d="M1340 728 c0 -2 -16 -47 -35 -100 -28 -80 -32 -98 -19 -98 8 0 20 14
25 30 9 25 16 30 44 30 28 0 35 -5 44 -30 5 -16 17 -30 25 -30 21 0 -44 194
-67 198 -10 2 -17 2 -17 0z m39 -110 c1 -5 -11 -8 -25 -8 -20 0 -25 4 -20 16
3 9 9 28 13 42 l6 27 13 -35 c7 -19 13 -38 13 -42z"/>
<path d="M1440 715 c0 -9 9 -15 25 -15 25 0 25 -1 25 -85 0 -69 3 -85 15 -85
12 0 15 16 15 85 l0 85 30 0 c20 0 30 5 30 15 0 12 -14 15 -70 15 -56 0 -70
-3 -70 -15z"/>
<path d="M1620 630 c0 -60 4 -100 10 -100 6 0 10 40 10 100 0 60 -4 100 -10
100 -6 0 -10 -40 -10 -100z"/>
<path d="M1719 701 c-39 -40 -41 -109 -4 -146 30 -31 93 -34 119 -6 25 28 36
76 25 116 -19 68 -89 86 -140 36z m90 -8 c12 -10 24 -34 27 -53 11 -66 -59
-117 -99 -72 -27 30 -26 93 3 122 25 25 41 25 69 3z"/>
<path d="M1910 630 c0 -82 3 -100 15 -100 12 0 15 15 15 73 l0 72 46 -72 c63
-101 74 -97 74 27 0 86 -2 100 -16 100 -14 0 -16 -10 -12 -75 3 -41 4 -75 3
-75 -2 0 -24 34 -50 75 -64 104 -75 100 -75 -25z"/>
<path d="M140 275 l0 -25 1210 0 1210 0 0 25 0 25 -1210 0 -1210 0 0 -25z"/>
</g>
</svg>
