<svg id="svg" version="1.1" xmlns="http://www.w3.org/2000/svg" xmlns:xlink="http://www.w3.org/1999/xlink" width="400" height="146.01466992665036" viewBox="0, 0, 400,146.01466992665036"><g id="svgg"><path id="path0" d="M0.045 114.583 C 0.082 139.299,0.091 139.935,0.409 140.667 C 1.460 143.090,3.116 144.533,6.083 145.613 C 6.873 145.901,8.195 145.919,31.125 145.961 L 55.333 146.005 55.333 120.503 L 55.333 95.000 32.708 95.000 C 18.754 95.000,9.403 94.935,8.308 94.831 C 4.506 94.471,2.055 93.017,0.533 90.219 L 0.006 89.250 0.045 114.583 M33.750 104.083 C 35.920 104.351,38.558 104.902,39.444 105.272 L 40.000 105.504 40.000 108.086 C 40.000 109.628,39.935 110.667,39.840 110.667 C 39.751 110.667,39.283 110.520,38.798 110.341 C 34.030 108.581,27.172 108.663,23.654 110.524 C 17.155 113.961,17.146 126.820,23.641 130.626 C 27.072 132.636,33.898 132.723,39.125 130.823 L 40.000 130.505 40.000 133.139 L 40.000 135.773 38.792 136.144 C 38.127 136.348,37.358 136.582,37.083 136.664 C 35.213 137.224,29.346 137.459,26.500 137.088 C 22.257 136.535,19.310 135.201,16.917 132.749 C 15.304 131.097,15.123 130.813,13.825 127.917 C 13.251 126.636,12.669 122.775,12.669 120.250 C 12.669 113.053,15.448 107.917,20.500 105.775 C 21.096 105.523,21.696 105.257,21.833 105.185 C 23.738 104.187,29.942 103.613,33.750 104.083 " stroke="none" fill="#e4b44c" fill-rule="evenodd"></path><path id="path1" d="M66.000 58.750 L 66.000 84.333 91.583 84.333 L 117.167 84.333 117.167 58.750 L 117.167 33.167 91.583 33.167 L 66.000 33.167 66.000 58.750 M98.688 43.834 C 99.914 44.017,101.104 44.232,101.333 44.310 C 101.563 44.389,102.181 44.588,102.708 44.754 L 103.667 45.054 103.667 47.677 L 103.667 50.301 102.958 50.075 C 102.569 49.951,101.875 49.728,101.417 49.580 C 98.714 48.702,93.728 48.388,90.917 48.918 C 84.609 50.107,81.838 54.520,82.657 62.075 C 83.578 70.576,91.238 73.952,102.083 70.639 C 102.725 70.443,103.344 70.210,103.458 70.121 C 103.623 69.993,103.667 70.522,103.667 72.650 L 103.667 75.342 103.234 75.506 C 98.974 77.126,88.917 77.319,86.294 75.831 C 86.135 75.741,85.901 75.667,85.775 75.667 C 85.398 75.667,83.149 74.490,82.215 73.804 C 78.838 71.324,77.048 67.866,76.490 62.747 C 75.310 51.926,80.009 45.093,89.500 43.828 C 90.279 43.724,90.947 43.608,90.986 43.570 C 91.210 43.345,96.678 43.533,98.688 43.834 " stroke="none" fill="#a31424" fill-rule="evenodd"></path><path id="path2" d="M58.583 0.916 C 56.377 1.895,56.174 1.983,54.348 2.749 C 52.406 3.563,48.623 5.166,48.250 5.333 C 48.067 5.415,47.560 5.636,47.125 5.824 C 46.690 6.013,45.977 6.321,45.542 6.509 C 45.106 6.697,44.600 6.919,44.417 7.002 C 44.233 7.084,43.596 7.347,43.000 7.586 C 42.404 7.825,41.521 8.203,41.037 8.427 C 40.553 8.650,40.124 8.833,40.084 8.833 C 40.043 8.833,39.576 9.025,39.047 9.260 C 38.517 9.494,37.933 9.752,37.750 9.832 C 37.567 9.912,36.329 10.438,35.000 11.000 C 32.596 12.016,31.719 12.390,31.083 12.669 C 30.248 13.035,28.877 13.619,23.667 15.826 C 20.596 17.126,17.611 18.410,17.034 18.678 C 16.457 18.947,15.932 19.169,15.868 19.172 C 15.803 19.175,15.450 19.323,15.083 19.500 C 14.717 19.677,14.362 19.825,14.296 19.828 C 14.230 19.831,13.780 20.015,13.296 20.237 C 12.812 20.459,11.592 20.987,10.583 21.412 C 9.575 21.837,8.600 22.251,8.417 22.333 C 8.233 22.415,7.708 22.641,7.250 22.836 C 6.792 23.031,6.192 23.287,5.917 23.406 C 5.642 23.524,5.061 23.762,4.626 23.935 C 3.960 24.200,3.417 24.688,4.042 24.460 C 4.156 24.418,5.262 24.068,6.500 23.682 C 7.737 23.297,8.900 22.914,9.083 22.833 C 9.267 22.751,10.054 22.484,10.833 22.239 C 11.612 21.994,13.262 21.463,14.500 21.059 C 15.737 20.655,17.237 20.172,17.833 19.985 C 18.429 19.799,19.067 19.582,19.250 19.505 C 19.433 19.427,20.933 18.934,22.583 18.409 C 28.684 16.468,31.258 15.635,31.583 15.495 C 31.767 15.416,32.554 15.151,33.333 14.906 C 34.112 14.661,35.762 14.130,37.000 13.726 C 38.237 13.322,39.737 12.839,40.333 12.652 C 40.929 12.465,41.567 12.250,41.750 12.172 C 41.933 12.095,43.546 11.564,45.333 10.991 C 47.121 10.418,50.233 9.410,52.250 8.751 C 54.267 8.092,56.892 7.238,58.083 6.853 C 59.275 6.468,60.456 6.072,60.708 5.973 L 61.167 5.793 61.167 2.896 C 61.167 -0.532,61.416 -0.341,58.583 0.916 M77.583 3.413 C 76.942 3.626,75.404 4.116,74.167 4.503 C 72.929 4.889,71.392 5.376,70.750 5.584 C 70.108 5.792,68.571 6.280,67.333 6.668 C 66.096 7.056,64.446 7.579,63.667 7.831 C 61.934 8.389,60.930 8.708,57.083 9.918 C 55.433 10.437,53.558 11.033,52.917 11.243 C 52.275 11.453,51.075 11.827,50.250 12.074 C 49.425 12.322,48.600 12.587,48.417 12.662 C 48.069 12.805,47.411 13.014,43.667 14.170 C 42.429 14.552,40.892 15.038,40.250 15.251 C 39.608 15.463,38.071 15.946,36.833 16.323 C 35.596 16.701,34.453 17.083,34.294 17.172 C 34.135 17.261,33.910 17.334,33.794 17.334 C 33.678 17.334,32.458 17.698,31.083 18.142 C 29.708 18.586,27.908 19.154,27.083 19.404 C 26.258 19.654,25.433 19.920,25.250 19.996 C 24.905 20.138,24.301 20.330,20.500 21.504 C 19.262 21.887,17.387 22.482,16.333 22.826 C 15.279 23.171,13.517 23.734,12.417 24.077 C 8.994 25.146,6.270 26.019,5.786 26.202 C 4.994 26.503,5.417 26.536,6.526 26.261 C 7.107 26.117,7.921 25.928,8.333 25.842 C 8.746 25.755,9.571 25.568,10.167 25.425 C 10.762 25.283,11.925 25.016,12.750 24.833 C 13.575 24.650,14.700 24.393,15.250 24.262 C 15.800 24.131,16.962 23.861,17.833 23.662 C 18.704 23.463,19.829 23.203,20.333 23.085 C 21.308 22.856,22.858 22.499,25.167 21.974 C 25.946 21.797,27.033 21.547,27.583 21.420 C 28.556 21.194,30.115 20.835,32.667 20.251 C 34.130 19.915,35.163 19.677,37.333 19.172 C 38.204 18.969,39.367 18.704,39.917 18.582 C 40.467 18.460,41.404 18.243,42.000 18.100 C 42.596 17.958,43.758 17.689,44.583 17.504 C 45.408 17.319,46.533 17.062,47.083 16.933 C 48.623 16.572,51.141 15.994,52.250 15.746 C 52.800 15.623,53.737 15.405,54.333 15.261 C 54.929 15.117,56.092 14.850,56.917 14.667 C 57.742 14.484,58.867 14.228,59.417 14.099 C 59.967 13.971,61.129 13.702,62.000 13.503 C 63.776 13.097,65.269 12.751,66.750 12.402 C 67.300 12.272,68.425 12.016,69.250 11.833 C 70.692 11.513,71.476 11.332,73.833 10.772 C 75.274 10.430,76.173 10.222,77.625 9.891 L 78.833 9.617 78.833 6.308 C 78.833 4.489,78.815 3.006,78.792 3.013 C 78.769 3.021,78.225 3.201,77.583 3.413 M289.833 7.432 C 285.515 8.218,283.268 10.439,283.276 13.915 C 283.282 16.940,284.724 18.578,288.849 20.250 C 291.696 21.403,292.405 21.908,292.595 22.919 C 293.058 25.388,289.268 26.281,285.258 24.646 C 284.612 24.383,284.038 24.168,283.983 24.167 C 283.928 24.167,283.753 24.748,283.594 25.458 C 283.435 26.169,283.265 26.863,283.216 27.000 C 282.741 28.349,282.796 28.426,284.695 29.060 C 292.183 31.562,299.375 27.084,297.579 21.038 C 297.046 19.242,293.588 16.333,291.987 16.333 C 291.876 16.333,291.178 16.044,290.435 15.691 C 285.578 13.381,290.031 10.089,295.047 12.280 C 295.861 12.636,295.917 12.569,296.426 10.654 C 296.655 9.790,296.883 8.955,296.931 8.798 C 297.165 8.036,291.987 7.040,289.833 7.432 M260.833 7.757 C 259.779 7.872,258.823 7.974,258.708 7.983 C 258.544 7.996,258.500 10.253,258.500 18.667 L 258.500 29.333 261.000 29.333 L 263.500 29.333 263.500 25.167 L 263.500 21.000 264.675 21.000 C 266.729 21.000,267.635 21.823,268.160 24.167 C 268.490 25.640,269.323 28.551,269.531 28.958 C 269.718 29.323,269.796 29.333,272.278 29.333 C 274.838 29.333,275.156 29.255,274.690 28.742 C 274.611 28.655,274.457 28.246,274.349 27.833 C 274.241 27.421,273.934 26.246,273.667 25.223 C 272.680 21.429,271.598 19.334,270.625 19.333 C 270.317 19.333,270.548 19.060,271.039 18.843 C 274.091 17.492,274.992 12.355,272.625 9.809 C 270.802 7.848,266.635 7.123,260.833 7.757 M325.167 7.757 C 324.112 7.872,323.156 7.974,323.042 7.983 C 322.877 7.996,322.833 10.250,322.833 18.651 L 322.833 29.301 324.607 29.422 C 336.374 30.224,341.840 26.692,341.897 18.250 C 341.952 10.065,336.328 6.538,325.167 7.757 M381.000 7.757 C 379.946 7.872,378.990 7.974,378.875 7.983 C 378.711 7.996,378.667 10.249,378.667 18.642 L 378.667 29.284 379.942 29.392 C 391.954 30.408,397.724 26.736,397.712 18.085 C 397.700 10.029,392.067 6.548,381.000 7.757 M137.670 14.125 C 137.673 22.642,137.883 24.273,139.246 26.417 C 141.795 30.423,149.620 30.883,152.994 27.224 C 155.112 24.929,155.333 23.762,155.333 14.906 L 155.333 7.833 152.833 7.833 L 150.333 7.833 150.333 14.684 C 150.333 24.234,149.881 25.551,146.607 25.537 C 143.149 25.523,142.667 24.159,142.667 14.396 L 142.667 7.833 140.167 7.833 L 137.667 7.833 137.670 14.125 M165.833 18.583 L 165.833 29.333 168.083 29.333 L 170.333 29.333 170.336 21.708 L 170.339 14.083 171.746 16.917 C 172.519 18.475,173.443 20.275,173.799 20.917 C 174.665 22.478,175.660 24.288,177.167 27.042 L 178.417 29.327 181.042 29.330 L 183.667 29.333 183.667 18.583 L 183.667 7.833 181.400 7.833 L 179.134 7.833 179.192 15.000 C 179.224 18.942,179.222 22.073,179.187 21.959 C 179.152 21.844,178.955 21.375,178.749 20.917 C 177.853 18.925,177.205 17.632,176.228 15.884 C 175.654 14.858,174.928 13.546,174.614 12.968 C 174.300 12.390,173.546 11.069,172.938 10.032 C 172.331 8.996,171.833 8.077,171.833 7.990 C 171.833 7.898,170.600 7.833,168.833 7.833 L 165.833 7.833 165.833 18.583 M194.167 18.583 L 194.167 29.333 196.667 29.333 L 199.167 29.333 199.167 18.583 L 199.167 7.833 196.667 7.833 L 194.167 7.833 194.167 18.583 M206.667 7.993 C 206.667 8.085,206.772 8.443,206.902 8.788 C 207.031 9.134,207.599 10.879,208.165 12.667 C 208.731 14.454,209.368 16.442,209.581 17.083 C 209.793 17.725,210.281 19.262,210.663 20.500 C 211.046 21.738,211.422 22.900,211.498 23.083 C 211.574 23.267,212.064 24.748,212.585 26.375 L 213.533 29.333 216.405 29.333 C 219.217 29.333,219.281 29.326,219.463 28.958 C 219.565 28.752,220.707 25.396,222.000 21.500 C 223.293 17.604,224.418 14.267,224.500 14.083 C 224.582 13.900,224.874 13.037,225.149 12.167 C 225.423 11.296,225.840 10.041,226.074 9.378 C 226.308 8.715,226.500 8.097,226.500 8.003 C 226.500 7.895,225.535 7.833,223.840 7.833 L 221.180 7.833 220.997 8.542 C 220.896 8.931,220.601 9.925,220.342 10.750 C 220.083 11.575,219.708 12.813,219.509 13.500 C 219.311 14.188,219.011 15.200,218.844 15.750 C 218.677 16.300,218.413 17.200,218.258 17.750 C 218.104 18.300,217.878 19.087,217.757 19.500 C 217.636 19.912,217.371 20.962,217.167 21.833 C 216.575 24.365,216.572 24.373,216.439 23.500 C 216.254 22.284,215.173 18.154,214.083 14.500 C 213.933 13.996,213.659 13.058,213.475 12.417 C 213.159 11.313,212.987 10.703,212.445 8.750 L 212.213 7.917 209.440 7.871 C 207.665 7.842,206.667 7.885,206.667 7.993 M235.000 18.583 L 235.000 29.333 242.000 29.333 L 249.000 29.333 249.000 27.250 L 249.000 25.167 244.583 25.167 L 240.167 25.167 240.167 22.750 L 240.167 20.333 244.083 20.333 L 248.000 20.333 248.000 18.250 L 248.000 16.167 244.083 16.167 L 240.167 16.167 240.167 14.000 L 240.167 11.833 244.333 11.833 L 248.500 11.833 248.500 9.833 L 248.500 7.833 241.750 7.833 L 235.000 7.833 235.000 18.583 M307.333 18.583 L 307.333 29.333 309.917 29.333 L 312.500 29.333 312.500 18.583 L 312.500 7.833 309.917 7.833 L 307.333 7.833 307.333 18.583 M356.278 7.958 C 356.237 8.027,355.972 8.871,355.690 9.833 C 354.881 12.587,354.069 15.272,353.496 17.083 C 353.206 18.000,352.896 19.012,352.807 19.333 C 352.718 19.654,352.434 20.592,352.175 21.417 C 351.917 22.242,351.499 23.592,351.248 24.417 C 350.997 25.242,350.575 26.592,350.312 27.417 C 350.049 28.242,349.833 29.010,349.833 29.125 C 349.833 29.283,350.458 29.333,352.399 29.333 C 355.317 29.333,355.005 29.510,355.501 27.583 C 355.666 26.942,355.967 25.835,356.170 25.125 L 356.538 23.833 359.506 23.833 L 362.474 23.833 362.640 24.375 C 362.731 24.673,362.970 25.479,363.172 26.167 C 363.373 26.854,363.668 27.829,363.827 28.333 L 364.116 29.250 366.828 29.296 L 369.540 29.342 369.455 28.963 C 369.330 28.404,368.330 25.138,368.166 24.750 C 368.088 24.567,367.827 23.742,367.585 22.917 C 367.343 22.092,367.081 21.229,367.003 21.000 C 366.924 20.771,366.658 19.908,366.411 19.083 C 366.164 18.258,365.793 17.058,365.586 16.417 C 365.378 15.775,365.038 14.688,364.829 14.000 C 364.620 13.313,364.201 11.963,363.898 11.000 C 363.595 10.037,363.251 8.931,363.133 8.542 L 362.919 7.833 359.636 7.833 C 357.830 7.833,356.319 7.890,356.278 7.958 M96.083 8.580 C 95.625 8.704,94.650 8.924,93.917 9.069 C 93.183 9.215,92.096 9.446,91.500 9.583 C 90.519 9.810,89.375 10.062,86.167 10.760 C 85.571 10.890,84.596 11.108,84.000 11.246 C 83.404 11.384,82.167 11.655,81.250 11.848 C 78.845 12.355,77.746 12.595,76.333 12.919 C 75.646 13.077,74.446 13.343,73.667 13.510 C 72.887 13.676,71.762 13.920,71.167 14.052 C 70.571 14.183,68.808 14.572,67.250 14.915 C 65.692 15.259,63.967 15.639,63.417 15.760 C 62.867 15.882,61.667 16.142,60.750 16.337 C 59.028 16.706,58.201 16.887,55.500 17.491 C 54.629 17.686,53.392 17.955,52.750 18.090 C 52.108 18.224,51.096 18.448,50.500 18.586 C 49.904 18.725,48.742 18.982,47.917 19.158 C 46.062 19.554,44.417 19.918,43.000 20.246 C 42.404 20.384,41.167 20.655,40.250 20.848 C 37.800 21.365,35.047 21.967,32.250 22.598 C 31.700 22.722,30.762 22.930,30.167 23.060 C 29.571 23.191,27.808 23.576,26.250 23.916 C 23.218 24.579,18.988 25.506,17.083 25.926 C 16.442 26.067,15.279 26.321,14.500 26.491 C 13.721 26.661,12.540 26.920,11.875 27.067 C 11.210 27.213,10.142 27.442,9.500 27.575 C 7.512 27.987,7.278 28.283,9.167 27.995 C 9.762 27.904,11.037 27.716,12.000 27.576 C 12.963 27.436,14.500 27.209,15.417 27.072 C 16.333 26.934,18.133 26.674,19.417 26.494 C 21.715 26.172,23.511 25.912,26.875 25.413 C 27.815 25.274,29.633 25.013,30.917 24.833 C 32.200 24.654,34.037 24.390,35.000 24.247 C 35.962 24.105,37.800 23.841,39.083 23.661 C 41.505 23.322,43.621 23.015,46.542 22.578 C 47.481 22.438,49.300 22.178,50.583 22.000 C 51.867 21.822,53.667 21.565,54.583 21.429 C 55.500 21.292,57.337 21.025,58.667 20.836 C 62.439 20.300,64.445 20.010,66.250 19.738 C 67.167 19.601,68.967 19.340,70.250 19.159 C 73.135 18.752,75.389 18.426,77.667 18.087 C 78.629 17.944,80.467 17.678,81.750 17.497 C 83.033 17.316,84.871 17.053,85.833 16.912 C 86.796 16.770,88.633 16.507,89.917 16.326 C 93.076 15.880,95.438 15.538,96.292 15.402 L 97.000 15.289 97.000 11.811 C 97.000 9.898,96.981 8.338,96.958 8.344 C 96.935 8.350,96.542 8.456,96.083 8.580 M267.202 11.665 C 268.277 12.070,268.849 12.820,268.959 13.968 C 269.157 16.022,267.444 17.326,264.542 17.331 L 263.500 17.333 263.500 14.429 C 263.500 11.110,263.348 11.385,265.202 11.353 C 265.954 11.340,266.610 11.442,267.202 11.665 M331.638 11.675 C 335.014 12.367,336.417 14.296,336.417 18.246 C 336.417 23.141,334.458 25.303,329.875 25.467 L 327.833 25.540 327.833 18.615 L 327.833 11.690 328.208 11.630 C 329.165 11.478,330.778 11.499,331.638 11.675 M387.790 11.750 C 391.331 12.585,393.095 15.906,392.230 20.107 C 391.486 23.723,389.530 25.330,385.708 25.467 L 383.667 25.540 383.667 18.615 L 383.667 11.690 384.042 11.618 C 384.896 11.453,386.818 11.521,387.790 11.750 M360.370 15.417 C 360.770 16.813,361.125 17.995,361.437 18.964 C 361.563 19.357,361.667 19.751,361.667 19.839 C 361.667 19.934,360.781 20.000,359.500 20.000 C 357.275 20.000,356.901 19.859,357.482 19.242 C 357.564 19.155,357.711 18.746,357.808 18.333 C 357.904 17.921,358.143 16.983,358.339 16.250 C 358.770 14.631,359.134 13.117,359.282 12.333 C 359.388 11.774,359.406 11.802,359.714 13.000 C 359.891 13.688,360.186 14.775,360.370 15.417 M111.917 17.601 C 110.908 17.728,109.071 17.946,107.833 18.084 C 106.596 18.223,104.646 18.447,103.500 18.583 C 102.354 18.719,100.067 18.981,98.417 19.164 C 96.767 19.347,94.479 19.608,93.333 19.744 C 89.706 20.173,86.841 20.504,83.750 20.851 C 82.100 21.036,79.850 21.291,78.750 21.418 C 77.650 21.545,75.362 21.807,73.667 22.000 C 71.971 22.193,69.683 22.455,68.583 22.583 C 63.319 23.194,62.040 23.340,59.250 23.653 C 57.600 23.838,55.237 24.110,54.000 24.256 C 51.159 24.592,48.557 24.892,44.750 25.320 C 43.100 25.505,40.775 25.772,39.583 25.913 C 38.392 26.054,36.067 26.319,34.417 26.503 C 32.767 26.686,30.479 26.947,29.333 27.083 C 25.811 27.502,22.876 27.839,19.917 28.165 C 15.272 28.677,12.624 29.004,11.917 29.154 L 11.250 29.295 12.000 29.307 C 12.412 29.314,14.213 29.248,16.000 29.160 C 20.513 28.940,29.020 28.556,38.083 28.162 C 42.300 27.979,48.188 27.718,51.167 27.581 C 62.319 27.070,67.794 26.824,75.250 26.499 C 82.838 26.169,88.913 25.896,99.250 25.420 C 102.183 25.285,106.815 25.084,109.542 24.973 L 114.500 24.772 114.500 21.053 L 114.500 17.333 114.125 17.351 C 113.919 17.361,112.925 17.474,111.917 17.601 M0.001 52.458 L 0.000 77.499 0.357 78.541 C 1.461 81.764,4.076 83.662,8.083 84.150 C 9.103 84.274,16.914 84.333,32.458 84.333 L 55.333 84.333 55.333 58.750 L 55.333 33.167 31.780 33.167 C 8.956 33.167,8.179 33.156,6.686 32.837 C 3.626 32.183,1.721 30.709,0.220 27.833 C 0.040 27.489,0.002 31.760,0.001 52.458 M37.167 46.250 L 37.167 48.833 29.333 48.833 L 21.500 48.833 21.500 53.083 L 21.500 57.333 29.000 57.333 L 36.500 57.333 36.500 60.000 L 36.500 62.667 28.917 62.667 L 21.333 62.667 21.333 67.083 L 21.333 71.500 29.417 71.500 L 37.500 71.500 37.500 74.083 L 37.500 76.667 26.583 76.667 L 15.667 76.667 15.667 60.167 L 15.667 43.667 26.417 43.667 L 37.167 43.667 37.167 46.250 M256.083 47.004 C 255.533 47.075,254.221 47.219,253.167 47.323 C 249.258 47.710,242.556 49.315,239.917 50.495 C 239.733 50.577,238.833 50.955,237.917 51.334 C 230.195 54.529,223.696 59.511,218.771 66.011 C 218.255 66.693,217.773 67.325,217.701 67.417 C 214.919 70.927,211.555 78.773,210.339 84.583 C 210.147 85.500,209.919 86.587,209.832 87.000 C 208.828 91.739,208.708 100.845,209.573 106.583 C 210.208 110.796,211.452 115.483,212.692 118.333 C 212.871 118.746,213.081 119.233,213.157 119.417 C 214.096 121.666,216.450 125.803,217.707 127.417 C 217.779 127.508,218.300 128.183,218.866 128.917 C 221.659 132.534,226.001 136.249,230.500 138.869 C 231.998 139.742,235.509 141.500,235.753 141.500 C 235.815 141.500,236.103 141.609,236.391 141.741 C 237.107 142.070,239.200 142.807,240.417 143.157 C 240.967 143.316,241.529 143.491,241.667 143.545 C 242.193 143.755,247.036 144.765,248.217 144.912 C 248.693 144.971,249.458 145.091,249.917 145.179 C 253.877 145.938,264.316 145.935,269.583 145.172 C 274.389 144.476,275.776 144.226,277.971 143.657 C 280.616 142.972,282.051 142.485,283.472 141.786 C 283.902 141.576,283.902 141.662,283.446 139.250 C 283.308 138.517,283.031 137.054,282.832 136.000 C 282.633 134.946,282.372 133.596,282.252 133.000 C 282.133 132.404,281.875 131.092,281.681 130.083 C 281.487 129.075,281.209 127.650,281.064 126.917 C 280.919 126.183,280.762 125.335,280.714 125.031 C 280.648 124.611,280.564 124.504,280.361 124.582 C 279.500 124.912,276.892 125.698,275.750 125.972 C 272.826 126.673,271.196 126.961,267.917 127.356 C 265.993 127.588,258.939 127.593,257.417 127.363 C 255.367 127.053,253.263 126.660,252.833 126.507 C 252.604 126.425,251.858 126.192,251.174 125.988 C 245.058 124.166,239.628 119.950,236.374 114.500 C 233.007 108.858,231.545 101.907,232.004 93.708 C 232.231 89.638,233.171 85.004,234.265 82.558 C 234.394 82.269,234.500 81.980,234.500 81.916 C 234.500 80.744,238.065 75.402,240.401 73.072 C 242.727 70.753,245.235 69.077,248.833 67.438 C 256.553 63.921,268.617 64.100,279.018 67.886 L 280.619 68.468 281.299 65.776 C 282.165 62.348,283.285 57.990,284.177 54.583 C 285.184 50.734,285.196 51.134,284.056 50.623 C 280.119 48.859,275.067 47.773,267.250 47.011 C 265.189 46.811,257.617 46.805,256.083 47.004 M337.153 46.899 C 337.115 46.935,336.108 47.052,334.917 47.159 C 329.088 47.681,323.198 49.166,317.750 51.487 C 316.530 52.007,313.298 53.641,312.720 54.031 C 312.337 54.289,311.977 54.500,311.920 54.500 C 311.554 54.500,307.228 57.612,305.333 59.238 C 302.766 61.442,298.860 65.901,297.422 68.269 C 297.150 68.717,296.560 69.683,296.110 70.417 C 295.226 71.857,293.947 74.431,293.252 76.167 C 293.014 76.762,292.754 77.400,292.675 77.583 C 291.897 79.400,290.490 84.572,290.170 86.792 C 290.068 87.502,289.912 88.458,289.823 88.917 C 289.020 93.064,289.037 101.906,289.856 106.667 C 290.181 108.555,290.849 111.898,291.004 112.417 C 292.390 117.039,292.660 117.752,294.377 121.321 C 296.775 126.307,300.628 131.301,304.500 134.441 C 304.821 134.702,305.181 135.008,305.301 135.121 C 307.062 136.795,313.664 140.705,316.058 141.492 C 316.410 141.608,316.898 141.807,317.141 141.934 C 317.384 142.061,317.700 142.165,317.842 142.166 C 317.984 142.166,318.171 142.230,318.258 142.307 C 318.896 142.872,324.881 144.347,329.500 145.078 C 337.460 146.338,350.137 145.765,357.667 143.806 C 358.354 143.627,359.297 143.385,359.762 143.269 C 360.605 143.058,363.566 141.950,363.956 141.699 C 364.167 141.563,364.112 141.148,363.395 137.500 C 363.261 136.813,363.003 135.462,362.824 134.500 C 362.645 133.537,362.394 132.225,362.266 131.583 C 361.632 128.392,361.299 126.648,361.129 125.625 C 360.926 124.410,360.895 124.383,360.109 124.735 C 359.369 125.066,357.675 125.574,355.917 125.992 C 355.092 126.189,354.154 126.417,353.833 126.499 C 353.512 126.581,352.398 126.766,351.356 126.909 C 350.314 127.053,349.413 127.201,349.354 127.237 C 348.584 127.713,338.774 127.659,336.378 127.165 C 335.941 127.075,335.058 126.896,334.417 126.767 C 331.804 126.241,328.503 125.049,326.462 123.895 C 325.915 123.586,325.406 123.333,325.331 123.333 C 325.256 123.333,325.169 123.277,325.139 123.208 C 325.108 123.140,324.604 122.772,324.019 122.391 C 322.715 121.543,320.543 119.604,319.349 118.220 C 318.445 117.173,316.667 114.745,316.667 114.557 C 316.667 114.500,316.441 114.087,316.165 113.639 C 315.890 113.191,315.360 112.095,314.987 111.204 C 314.615 110.312,314.246 109.433,314.166 109.250 C 314.007 108.886,313.632 107.569,313.168 105.750 C 313.005 105.108,312.782 103.871,312.674 103.000 C 312.566 102.129,312.407 100.915,312.322 100.301 C 311.895 97.234,312.359 90.162,313.193 87.010 C 313.377 86.317,313.639 85.301,313.776 84.752 C 313.913 84.203,314.084 83.678,314.156 83.585 C 314.228 83.493,314.335 83.216,314.394 82.970 C 314.453 82.724,314.763 81.955,315.084 81.261 C 315.404 80.567,315.667 79.967,315.667 79.929 C 315.667 79.837,317.381 76.942,317.500 76.833 C 317.550 76.787,317.731 76.531,317.901 76.263 C 319.692 73.453,324.434 69.556,328.000 67.963 C 328.321 67.819,328.935 67.544,329.366 67.351 C 329.796 67.158,330.229 67.000,330.326 67.000 C 330.424 67.000,330.635 66.928,330.794 66.841 C 331.552 66.424,334.713 65.655,337.417 65.229 C 339.868 64.842,345.776 64.843,348.500 65.231 C 351.849 65.707,356.744 66.831,357.706 67.345 C 357.865 67.430,358.078 67.500,358.178 67.500 C 358.279 67.500,358.928 67.727,359.621 68.004 C 360.313 68.282,360.893 68.488,360.908 68.463 C 360.924 68.437,361.168 67.479,361.452 66.333 C 361.736 65.188,362.472 62.300,363.088 59.917 C 363.704 57.533,364.344 55.021,364.510 54.333 C 364.676 53.646,364.920 52.653,365.051 52.127 C 365.319 51.048,365.321 51.051,364.167 50.540 C 362.190 49.665,358.949 48.716,356.083 48.173 C 355.075 47.982,353.875 47.754,353.417 47.666 C 352.958 47.579,351.721 47.429,350.667 47.333 C 349.613 47.237,348.107 47.085,347.322 46.996 C 345.969 46.842,337.300 46.759,337.153 46.899 M137.500 96.333 L 137.500 144.333 168.167 144.333 L 198.833 144.333 198.833 135.333 L 198.833 126.333 179.083 126.333 L 159.333 126.333 159.333 115.083 L 159.333 103.833 177.000 103.833 L 194.667 103.833 194.667 94.917 L 194.667 86.000 177.000 86.000 L 159.333 86.000 159.333 76.167 L 159.333 66.333 178.000 66.333 L 196.667 66.333 196.667 57.333 L 196.667 48.333 167.083 48.333 L 137.500 48.333 137.500 96.333 M378.167 96.333 L 378.167 144.333 389.083 144.333 L 400.000 144.333 400.000 96.333 L 400.000 48.333 389.083 48.333 L 378.167 48.333 378.167 96.333 M66.000 120.417 L 66.000 146.000 91.583 146.000 L 117.167 146.000 117.167 120.417 L 117.167 94.833 91.583 94.833 L 66.000 94.833 66.000 120.417 M93.000 120.667 L 93.000 137.167 90.000 137.167 L 87.000 137.167 87.000 120.667 L 87.000 104.167 90.000 104.167 L 93.000 104.167 93.000 120.667 " stroke="none" fill="#04447c" fill-rule="evenodd"></path><path id="path3" d="" stroke="none" fill="#3c8050" fill-rule="evenodd"></path><path id="path4" d="" stroke="none" fill="#402c50" fill-rule="evenodd"></path></g></svg>