<?xml version="1.0" encoding="UTF-8" standalone="no"?>
<svg
   xmlns:dc="http://purl.org/dc/elements/1.1/"
   xmlns:cc="http://creativecommons.org/ns#"
   xmlns:rdf="http://www.w3.org/1999/02/22-rdf-syntax-ns#"
   xmlns:svg="http://www.w3.org/2000/svg"
   xmlns="http://www.w3.org/2000/svg"
   xmlns:sodipodi="http://sodipodi.sourceforge.net/DTD/sodipodi-0.dtd"
   xmlns:inkscape="http://www.inkscape.org/namespaces/inkscape"
   version="1.0"
   width="144"
   height="37"
   viewBox="0 0 115.2 29.6"
   preserveAspectRatio="xMidYMid meet"
   id="svg2"
   inkscape:version="0.48.4 r9939"
   sodipodi:docname="transparent(1).svg">
  <title
     id="title2991">RCN Radio Colombia logo</title>
  <defs
     id="defs26" />
  <sodipodi:namedview
     pagecolor="#ffffff"
     bordercolor="#666666"
     borderopacity="1"
     objecttolerance="10"
     gridtolerance="10"
     guidetolerance="10"
     inkscape:pageopacity="0"
     inkscape:pageshadow="2"
     inkscape:window-width="1600"
     inkscape:window-height="844"
     id="namedview24"
     showgrid="false"
     inkscape:zoom="1"
     inkscape:cx="75.652327"
     inkscape:cy="17.352064"
     inkscape:window-x="-4"
     inkscape:window-y="-4"
     inkscape:window-maximized="1"
     inkscape:current-layer="svg2"
     inkscape:showpageshadow="false" />
  <metadata
     id="metadata4">
Created by potrace 1.13, written by Peter Selinger 2001-2015
<rdf:RDF>
  <cc:Work
     rdf:about="">
    <dc:format>image/svg+xml</dc:format>
    <dc:type
       rdf:resource="http://purl.org/dc/dcmitype/StillImage" />
    <dc:title>RCN Radio Colombia logo</dc:title>
    <cc:license
       rdf:resource="http://scripts.sil.org/OFL" />
  </cc:Work>
  <cc:License
     rdf:about="http://scripts.sil.org/OFL">
    <cc:permits
       rdf:resource="http://scripts.sil.org/pub/OFL/Reproduction" />
    <cc:permits
       rdf:resource="http://scripts.sil.org/pub/OFL/Distribution" />
    <cc:permits
       rdf:resource="http://scripts.sil.org/pub/OFL/Embedding" />
    <cc:permits
       rdf:resource="http://scripts.sil.org/pub/OFL/DerivativeWorks" />
    <cc:requires
       rdf:resource="http://scripts.sil.org/pub/OFL/Notice" />
    <cc:requires
       rdf:resource="http://scripts.sil.org/pub/OFL/Attribution" />
    <cc:requires
       rdf:resource="http://scripts.sil.org/pub/OFL/ShareAlike" />
    <cc:requires
       rdf:resource="http://scripts.sil.org/pub/OFL/DerivativeRenaming" />
    <cc:requires
       rdf:resource="http://scripts.sil.org/pub/OFL/BundlingWhenSelling" />
  </cc:License>
</rdf:RDF>
</metadata>
  <g
     transform="matrix(0.00929681,0,0,-0.01011324,-6.741133,44.486049)"
     id="g6"
     style="fill:#5fb60f;fill-opacity:1;stroke:none">
    <path
       d="m 3170,4301 c -15,-4 -26,-15 -28,-27 -3,-20 3,-21 125,-27 314,-16 650,-102 847,-219 279,-164 487,-386 623,-665 25,-51 51,-93 59,-93 11,0 14,63 16,378 l 3,377 251,3 c 203,2 253,0 263,-11 8,-11 10,-295 9,-1088 l -3,-1074 -130,-3 c -441,-10 -839,116 -1068,338 l -62,61 50,42 c 95,79 215,225 215,260 0,15 -228,147 -253,147 -7,0 -31,-23 -52,-51 -110,-144 -319,-263 -547,-310 -173,-35 -421,-19 -590,40 -237,82 -387,232 -452,450 -46,156 7,358 130,491 168,181 480,294 744,269 278,-26 508,-131 668,-305 39,-42 74,-75 79,-73 5,2 64,38 131,79 82,50 122,81 122,93 0,29 -235,256 -331,320 -232,154 -470,217 -773,204 -166,-7 -294,-32 -450,-85 l -113,-38 -93,89 c -205,194 -452,317 -768,382 -175,36 -304,45 -664,45 l -328,0 0,-1360 0,-1360 555,0 555,0 0,145 c 0,85 4,145 10,145 5,0 37,-20 72,-44 164,-114 383,-191 658,-232 125,-18 463,-24 583,-10 62,7 67,9 67,32 0,23 -3,24 -64,24 -95,0 -257,18 -376,41 -502,100 -933,413 -1155,840 -31,61 -63,109 -71,109 -12,0 -14,-60 -16,-387 l -3,-388 -256,-3 c -208,-2 -258,0 -268,11 -8,11 -10,294 -9,1083 l 3,1069 214,3 c 181,2 232,-1 330,-18 259,-47 520,-163 713,-318 l 57,-46 -64,-67 c -115,-122 -193,-260 -231,-404 -24,-95 -25,-314 -1,-404 23,-86 58,-170 98,-238 52,-86 199,-230 315,-306 231,-153 448,-217 735,-217 166,0 288,19 438,70 l 114,38 51,-47 c 245,-229 537,-380 876,-453 99,-21 128,-22 500,-23 l 395,0 0,1355 0,1355 -555,0 -555,0 -5,-125 c -3,-75 -9,-124 -15,-123 -5,1 -48,24 -94,52 -150,91 -375,164 -601,196 -109,15 -580,20 -630,6 z"
       id="path10"
       style="fill:#3c4c9a;fill-opacity:1"
       inkscape:connector-curvature="0" />
    <path
       d="m 6505,2679 c -151,-8 -290,-26 -451,-60 l -101,-21 -12,-52 c -35,-158 -41,-253 -41,-628 l 0,-378 110,0 109,0 3,133 c 3,125 4,132 23,131 11,-1 61,-7 110,-13 50,-7 226,-15 393,-18 l 302,-6 58,-111 57,-111 103,-3 c 88,-2 103,0 109,14 4,10 -15,60 -50,130 -31,62 -53,116 -48,118 5,3 55,17 112,31 56,13 106,30 110,37 4,7 16,55 26,108 26,135 25,381 -2,514 -22,115 -8,105 -198,140 -234,44 -474,58 -722,45 z m 520,-250 c 77,-11 145,-25 152,-32 18,-19 53,-133 53,-175 0,-59 -38,-162 -64,-172 -12,-4 -80,-16 -151,-26 -198,-29 -510,-25 -713,9 -84,14 -159,30 -167,37 -24,20 -20,175 6,253 11,34 26,67 32,74 14,14 166,40 307,53 136,12 382,3 545,-21 z"
       id="path12"
       style="fill:#5fb60f;fill-opacity:1"
       inkscape:connector-curvature="0" />
    <path
       d="m 10688,2553 -3,-128 -35,1 c -19,1 -84,7 -144,13 -158,16 -545,14 -701,-4 -72,-8 -189,-27 -262,-42 l -132,-27 -11,-44 c -22,-87 -40,-239 -40,-333 0,-106 35,-337 53,-355 13,-13 232,-57 377,-76 55,-7 202,-12 350,-12 211,1 280,5 400,23 144,22 307,55 316,64 3,2 14,49 26,103 19,90 21,139 25,522 l 5,422 -111,0 -110,0 -3,-127 z m -418,-333 c 157,-12 389,-47 408,-62 8,-7 12,-40 12,-97 0,-96 -32,-226 -59,-240 -9,-5 -74,-17 -146,-27 -254,-37 -764,-17 -842,32 -26,16 -63,125 -63,185 0,34 33,144 49,161 13,14 317,51 466,57 22,0 101,-4 175,-9 z"
       id="path14"
       style="fill:#5fb60f;fill-opacity:1"
       inkscape:connector-curvature="0" />
    <path
       d="m 11082,2568 3,-113 113,-3 112,-3 0,116 0,115 -115,0 -116,0 3,-112 z"
       id="path16"
       style="fill:#5fb60f;fill-opacity:1"
       inkscape:connector-curvature="0" />
    <path
       d="m 8380,2343 c 0,-101 2,-113 18,-113 153,-3 489,-45 508,-64 7,-6 15,-21 19,-33 l 6,-23 -650,0 -651,0 0,-134 c 0,-107 5,-155 24,-236 13,-56 28,-106 33,-110 10,-10 248,-56 373,-72 123,-16 557,-16 680,0 153,20 370,63 384,77 25,26 51,212 51,370 0,141 -22,317 -44,353 -18,29 -405,87 -638,95 l -113,3 0,-113 z m 545,-473 c 10,-17 -14,-48 -42,-54 -182,-39 -490,-55 -681,-37 -241,24 -314,45 -299,85 6,14 61,16 511,16 319,0 507,-4 511,-10 z"
       id="path18"
       style="fill:#5fb60f;fill-opacity:1"
       inkscape:connector-curvature="0" />
    <path
       d="m 11923,2434 c -124,-15 -364,-61 -374,-72 -11,-12 -39,-171 -48,-274 -10,-106 -3,-221 24,-365 l 17,-93 37,-9 c 210,-55 397,-75 691,-75 279,0 429,16 642,65 l 86,20 18,87 c 10,54 19,152 21,257 4,143 1,187 -16,274 -11,58 -25,109 -29,113 -14,14 -232,56 -377,73 -161,19 -535,18 -692,-1 z m 482,-214 c 72,-5 180,-16 240,-25 128,-18 134,-23 165,-123 22,-71 21,-88 -11,-189 -23,-70 -11,-64 -179,-90 -163,-25 -508,-25 -685,1 -71,10 -138,23 -148,28 -22,12 -52,74 -67,142 -9,42 -8,59 9,115 11,36 26,74 33,83 15,20 167,45 343,57 156,11 156,11 300,1 z"
       id="path20"
       style="fill:#5fb60f;fill-opacity:1"
       inkscape:connector-curvature="0" />
    <path
       d="m 11082,1918 3,-373 110,0 110,0 3,373 2,372 -115,0 -115,0 2,-372 z"
       id="path22"
       style="fill:#5fb60f;fill-opacity:1"
       inkscape:connector-curvature="0" />
  </g>
</svg>
