<?xml version="1.0" encoding="utf-8"?>
<!-- Generator: Adobe Illustrator 19.0.0, SVG Export Plug-In . SVG Version: 6.00 Build 0)  -->
<svg version="1.1" id="Capa_1" xmlns="http://www.w3.org/2000/svg" xmlns:xlink="http://www.w3.org/1999/xlink" x="0px" y="0px"
	 viewBox="-26.2 341.1 482.3 161.1" style="enable-background:new -26.2 341.1 482.3 161.1;" xml:space="preserve">
<style type="text/css">
	.st0{fill:url(#SVGID_1_);}
	.st1{fill:url(#SVGID_2_);}
	.st2{fill:url(#SVGID_3_);}
	.st3{fill:url(#SVGID_4_);}
	.st4{fill:url(#SVGID_5_);}
	.st5{fill:url(#SVGID_6_);}
	.st6{fill:url(#SVGID_7_);}
	.st7{fill:url(#SVGID_8_);}
	.st8{fill:url(#SVGID_9_);}
	.st9{opacity:0.49;fill:#F4F3F3;}
	.st10{opacity:0.25;fill:url(#SVGID_10_);}
	.st11{opacity:0.25;fill:url(#SVGID_11_);}
	.st12{opacity:0.58;fill:url(#SVGID_12_);}
	.st13{opacity:0.25;fill:url(#SVGID_13_);}
	.st14{opacity:0.77;fill:#F4F3F3;}
	.st15{fill:#F4F3F3;}
	.st16{opacity:0.35;fill:url(#SVGID_14_);}
	.st17{opacity:0.35;fill:url(#SVGID_15_);}
	.st18{opacity:0.35;fill:url(#SVGID_16_);}
	.st19{opacity:0.35;fill:url(#SVGID_17_);}
	.st20{opacity:0.35;fill:url(#SVGID_18_);}
	.st21{opacity:0.27;fill:#F2F2F2;}
	.st22{opacity:0.6;fill:#F2F2F2;}
	.st23{fill:#3D3D3C;}
</style>
<g>
	<g>
		
			<radialGradient id="SVGID_1_" cx="288.5987" cy="431.9606" r="33.585" gradientTransform="matrix(2.4963 0 0 2.4963 -322.1899 -629.4227)" gradientUnits="userSpaceOnUse">
			<stop  offset="0" style="stop-color:#E6E6E6"/>
			<stop  offset="1" style="stop-color:#888888"/>
		</radialGradient>
		<path class="st0" d="M347.3,469.1c-0.6-10.7-9-21.8-18.9-26.8c-8-4.1-13.7-3.4-16.9-0.4c-1.8,1.7-3,5.1-2.1,9.9
			c1.2,6.2,5.5,12.4,11.5,14.8c5,2,10.8-0.8,6.7-6c-1.4-1.7-4.4-2.4-6.2-3.3c-2.8-1.3-4-2.5-4.5-4.8c-0.7-3.2,2.4-5,6.5-3.2
			c3,1.3,7.2,4,10.2,8.7c3,4.6,3.2,8.7,1.8,12c-1,2.2-3.3,4.5-7.8,4.5c-5.6,0.1-12.1-1.9-18.3-9.4c-1-1.2-2-0.6-1.6,0.1
			c3.1,5.5,9,12.3,12.5,14.9c3.9,2.8,10.2,4,14.7,3.3C340.7,482.4,347.8,478,347.3,469.1z"/>
		
			<radialGradient id="SVGID_2_" cx="288.6113" cy="432.0106" r="33.5858" gradientTransform="matrix(2.4963 0 0 2.4963 -322.1899 -629.4227)" gradientUnits="userSpaceOnUse">
			<stop  offset="0" style="stop-color:#E6E6E6"/>
			<stop  offset="1" style="stop-color:#808080"/>
		</radialGradient>
		<path class="st1" d="M393.6,498.1c-5.7-1.6-14.2-6.7-18.2-15.1c-0.2-0.4-0.4-0.9-0.6-1.4c-2.9-7-3.7-16.3-0.2-26.4
			c2.6-7.7,1.8-10.5-8.3-12.3c-0.2,0-0.3-0.1-0.5-0.1c-13.5-2.6-46.4-16.9-60.3-38.2c-1.8-2.8-3.3-5.7-4.4-8.7
			c-0.5-1.4-1.2-0.4-1.4,0.2c-2.7,8.1-4,15.5-4.1,23.8c-0.3,8.5,0.7,17.1,3.1,25.2c0.8,2.7,1.6,4.8,2.4,7.1c0.5,1.4,1.3,0.5,1.1-0.7
			c-1-7.5,2.1-14.4,7.5-17.4c0.9-0.5,3.4-2.4,8-2.4c4.7,0,10.1,1.7,16.1,5.2c12.9,7.6,23,21.1,21.4,36.1c-1.2,11.7-9.7,18-18.5,17.5
			c-1.8-0.1-2,0.8-1.3,1.2c7,4,15.3,7.4,24.4,9.3c1.7,0.4,5,1.2,7.5,1.1c2.4-0.1,2.4-1-0.4-2.2c-3.5-1.5-5.8-3.2-7.4-5.4
			c-1.4-2-0.6-4.2,0.9-6.4c1.5-2.2,1.9-2.2,4.4,0.4c11.9,12.2,20.9,12.5,25.6,12C393.7,500.2,396.6,498.9,393.6,498.1z"/>
		
			<radialGradient id="SVGID_3_" cx="288.5985" cy="431.9606" r="33.5852" gradientTransform="matrix(2.4963 0 0 2.4963 -322.1899 -629.4227)" gradientUnits="userSpaceOnUse">
			<stop  offset="0" style="stop-color:#E6E6E6"/>
			<stop  offset="1" style="stop-color:#808080"/>
		</radialGradient>
		<path class="st2" d="M404.1,415.8c-7.2,0.7-13.8,1.6-20.2,2.2c-6.9,0.7-13.5,1-20.2,0.6c-8.4-0.5-16.9-2.3-26.5-6.3
			c-8.1-3.4-16.3-9-21.2-17.3c-2.6-4.4-4.9-11.5-5.1-17.4c-0.1-2.2-1.1-1.7-2.3,0.3c-1.6,2.7-3.3,5.3-4.2,7.2
			c-0.9,1.8,2.7,9.1,6.1,14.7c0.5,0.8,1,1.6,1.5,2.4c11.7,17.1,37.2,28.3,52.5,32.4c0.1,0,0.2,0.1,0.3,0.1c5.3,1.4,9.6,3,13.7,3.2
			c3.8,0.3,6.4-1.7,11.1-3.7c2.1-0.9,4.1-1.8,6.4-2.5c4.4-1.5,9.5-2.6,16.9-2.9c10.2-0.4,18.1,2.8,23.3,9.5
			c3.2,4.1,4.8,9.2,4.1,15.8c-1,8.7-7.9,19.7-19.7,25c-8.7,3.8-15.5,2.4-19.6-0.4c-2.3-1.6-3.8-3.6-4.3-5.4c-1.3-4.2-1.4-8.9,2-14.2
			c1.3-2.1,3.1-3.9,5.1-5.4c4.4-3.3,9.9-4.8,14.3-2.5c3.6,2,4.3,10.1-5.8,11.6c-2.5,0.4-5.2,2.8-5.2,6c0.1,5.3,5,5.5,7.8,5
			c8.8-1.4,13.9-8.1,16.1-13c2.7-6.3,1.6-12.7-2.3-17.4c-2.7-3.1-7.8-6.6-16.1-6.4c-4.5,0.1-8.7,1-12.5,2.7
			c-5.4,2.4-10.1,6.3-13.8,11.8c-6.3,9.4-8.5,23.5,1.2,32.8c3.2,3.1,6.5,5,9.8,6c6.6,2,13.2,0.7,19.5-1.3
			c13.1-4.1,35.2-21.5,31.3-47.5C444.9,423.9,429.8,413.2,404.1,415.8z"/>
		
			<radialGradient id="SVGID_4_" cx="288.598" cy="431.9602" r="33.5848" gradientTransform="matrix(2.4963 0 0 2.4963 -322.1899 -629.4227)" gradientUnits="userSpaceOnUse">
			<stop  offset="0" style="stop-color:#E6E6E6"/>
			<stop  offset="1" style="stop-color:#808080"/>
		</radialGradient>
		<path class="st3" d="M456,429.9c-0.5-6.7-4.5-22.6-28.5-31c-11.1-3.8-23.5-3.5-31.3-3.5c-1.8,0-2.9-0.6-3.1-1.7
			c-0.2-1,0.3-2.5,1.6-4.3c2-2.7,5.3-5.8,9.1-5.8c29.1,0.2,41.6,12.7,49.7,24.9c2.3,3.5,3,1,0.5-5.2c-2.9-7.1-10.1-17-21.9-23.9
			c-9.5-5.6-17.3-7.4-23.9-9.1c-3.9-1-4.8-3.6-5.9-7.4c-1.1-3.9,0.3-5.4,3.5-4.8c18.8,3.7,29.8,14.6,34.1,19.1
			c3.1,3.2,3.9,1.3,1.1-2.7c-4.4-6.3-10.2-13-21.3-20.2c-17-11-36-14.5-51-12.5c-3.8,0.5-1.7,2.1-0.5,2.5c7.7,2.5,11,4.4,14.5,7.6
			c5.4,4.8,8.4,13.9,4.9,23.2c-2.6,7.1-10.5,14.8-22.7,18.1c-4.3,1.1-9,1.7-14.2,1.5c-6-0.2-14.5-2.6-19.3-7
			c-0.6-0.5-1.1-1.1-1.6-1.7c-4-5.4-3-12.8-1.3-16.6c3.5-7.7,11.7-12.9,19.7-13.7c6.5-0.6,12.4,0.9,16.5,4.3
			c2.6,2.1,4.4,5.7,2.8,9.1c-3.2,7.3-14.5,9.7-18.1,8.2c-4.5-1.8-2.4-5.7,0.6-6.9c3.5-1.3,5.8-2.1,6.4-4.8c0.5-2.3-3.1-6.8-12-3.5
			c-3.8,1.4-7.6,4.7-8.7,9.1c-1,3.9,0.1,8.2,2.8,10.9c1.8,1.9,5.8,5.2,13.7,5.2c3.7,0,8.3-0.8,12.2-2.4
			c13.8-5.6,15.6-16.6,14.6-20.8c-1.5-6.2-6.1-10.9-13.4-13.6c-7.4-2.7-15.1-3.4-24.5-0.6c-4.9,1.5-15.8,6.6-20.5,16.9
			c-4.1,9-2.4,17.8,1.3,24.1c1.3,2.2,2.7,4,4.3,5.5c5.4,5.1,17,11.1,31.8,13.1c2.6,0.4,5.2,0.6,7.7,0.8c4.4,0.3,8.7,0.3,12.9,0.2
			c9.5-0.3,18.2-1.4,25.3-2.1c12.1-1.1,18.2-0.1,25.6,1.8c18.4,4.9,22.3,18,23.4,22.3C454.4,437.2,456.3,434.5,456,429.9z"/>
		<g>
			
				<linearGradient id="SVGID_5_" gradientUnits="userSpaceOnUse" x1="348.4404" y1="407.7505" x2="271.4144" y2="379.2224" gradientTransform="matrix(1.221 9.990000e-002 0 1 -42.2244 -19.1292)">
				<stop  offset="0" style="stop-color:#E3E3E3"/>
				<stop  offset="5.496633e-002" style="stop-color:#D6D6D6"/>
				<stop  offset="0.2722" style="stop-color:#AAAAAA"/>
				<stop  offset="0.4813" style="stop-color:#878787"/>
				<stop  offset="0.6775" style="stop-color:#6E6E6E"/>
				<stop  offset="0.8558" style="stop-color:#5F5F5F"/>
				<stop  offset="1" style="stop-color:#595959"/>
			</linearGradient>
			<path class="st4" d="M309.8,379.2c0.3-1.3,0.3-2.2,0.3-2.8c-3,3.4-4.1,5.9-5.7,9.5c1.5,4.6,4.1,9.1,6.2,12.9
				c0.9,1.7,2,3.3,3.2,4.8c4.1,5.2,9.3,9.7,14.7,13.5c3.3,2.4,6.8,4.6,10.4,6.7c1.9,1.1,3.9,2.2,5.9,3.2c1,0.5,1.9,1.1,2.9,1.5
				c0.3,0.1,2,0.4,2,0.7c-0.4-2.3,0.7-4.2,2.1-5.9c1.3-1.5,3.1-3.7,5.1-4.2c-6.4-1.1-13.3-3-21.3-5.9
				C325.8,409.7,307.7,390,309.8,379.2z"/>
			<linearGradient id="SVGID_6_" gradientUnits="userSpaceOnUse" x1="398.8574" y1="385.3595" x2="305.3475" y2="350.7263">
				<stop  offset="0" style="stop-color:#E3E3E3"/>
				<stop  offset="5.496633e-002" style="stop-color:#D6D6D6"/>
				<stop  offset="0.2722" style="stop-color:#AAAAAA"/>
				<stop  offset="0.4813" style="stop-color:#878787"/>
				<stop  offset="0.6775" style="stop-color:#6E6E6E"/>
				<stop  offset="0.8558" style="stop-color:#5F5F5F"/>
				<stop  offset="1" style="stop-color:#595959"/>
			</linearGradient>
			<path class="st5" d="M398.6,398.6c0.6-0.4,1.1-0.7,1.6-1.1c0.5-0.4,14.2,0,21.5,1.3c4,0.7,5.6,0.9,4.2,0.4
				c-4.1-1.5-15.5-3-23.3-3.2c-2.4-0.1-5.1,0.3-7.5-0.2c-3.8-0.8-4-2.6-2.2-5.5c1.9-3.1,5.2-6.8,8.9-7.2c3.8-0.5,7.2-0.2,8.7,0
				c0.6-1.5,2.7-7.6,1.4-9.2c-0.4-0.5,8.5,1,21.4,7.6c0.9,0.5,1.2,0.3,0.5-0.3c-5.1-3.8-10.2-5.3-12.3-6.2
				c-4.6-2.1-9.8-3.3-14.7-4.5c-3.1-0.7-4.9-4.3-5.7-7.2c-0.6-2-0.8-5.1,1.6-6c0.9-0.4,5,0.1,5.5,0.9c-1.4-2.2-3.4-5.6-5.3-7.7
				c-7.4-8.1-16.6-8.8-27-8.9c-1.8,0-3.5-0.2-5.3,0c-4.8,0.5-0.2,2.2,2.1,3.1c3.5,1.5,5.3,3,7.8,4.8c8.2,6.2,10.2,14.8,7.8,24.3
				c-2.6,9.4-17.3,21.2-36,20.7c-6.8-0.2-16.8-1.3-22.7-8.5c-4.5-5.5-3.3-13.1-1.9-16.8c2.6-6.9,9.2-12.3,16.2-14.1
				c5.8-1.5,13.3-1.1,18.4,2.2c2.5,1.6,5,4,5.7,7c0.3,1.2,0.2,2.5-0.1,3.7c-0.3,1.3-1,2.5-1.8,3.5c-0.5,0.8-1.2,1.5-2,2
				c-2.7,1.8-6.2,3.3-9.5,3.8c-1.8,0.3-4.1,0.5-5.7-0.5c-1.3-0.9-2.5-2.1-1.8-3.8c0.4-1,1.4-1.8,2.4-2.3c2.1-1.1,6.5-1.9,6.8-4.7
				c0.3-1.9-0.9-3.7-2.6-4.5c-1.9-0.9-4.3-0.9-6.2-0.4c-1.9,0.4-5.7,1.6-9.5,6.1c-2.9,3.4-2.9,8-0.6,11.6c1.7,2.7,4.5,4.5,7.5,5.5
				c2.5,0.8,5.3,1.3,7.9,1.3c3.7,0,8.3-0.7,12.2-2.3c13.7-5.5,14.7-16.6,13.3-20.8c-2-6.3-6.5-10-14.2-12.6
				c-7.3-2.5-15.1-3-24.8,0.5c-12.2,4.4-17.2,13.3-18.4,16.1c-5.1,11.7-0.4,23.3,6.3,29.1c5.8,5,16.2,10.3,31.1,12.4
				c5,0.7,10.6,1.5,16.8,0.9C377.3,407.8,393.2,402.1,398.6,398.6z"/>
			<linearGradient id="SVGID_7_" gradientUnits="userSpaceOnUse" x1="364.3581" y1="475.9707" x2="272.3419" y2="441.8907">
				<stop  offset="0" style="stop-color:#E3E3E3"/>
				<stop  offset="5.496633e-002" style="stop-color:#D6D6D6"/>
				<stop  offset="0.2722" style="stop-color:#AAAAAA"/>
				<stop  offset="0.4813" style="stop-color:#878787"/>
				<stop  offset="0.6775" style="stop-color:#6E6E6E"/>
				<stop  offset="0.8558" style="stop-color:#5F5F5F"/>
				<stop  offset="1" style="stop-color:#595959"/>
			</linearGradient>
			<path class="st6" d="M334,483.2c2-0.1,4.1-0.6,6.1-1.7c-0.1-0.4-0.4-0.8-0.5-1.2c-2-8.6,0.1-17.7,0.5-20.2
				c0.2-1.2,0.4-2.3,0.6-3.5c0.1-0.4,0.1-1.3,0.4-1.6c0.3-0.4,0.5,0,0.7-0.2c0,0,0.1-0.1,0.1-0.1c-3.5-5-8.5-9.3-13.8-12
				c-8.2-4.1-13-3.7-16.4-0.7c-2.1,1.8-2.8,5-2.1,9.7c0.9,6.2,5.3,13.1,11.6,15.1c2.2,0.7,6.4,0.5,7.1-1.7c0.7-2.1-0.9-4.9-2.6-5.7
				c-1.6-0.7-4.9-1.4-7.1-3.1c-2.1-1.7-2.9-4.3-2.1-6.7c1.2-3.1,8.4-3.7,16.8,7.3c3.3,4.3,3.3,9.7,1.8,12.9c-1,2.2-3.1,3.7-5.7,4.1
				c-0.8,0.1-1.6,0.2-2.4,0.2c-5.1,0-9.2-1.3-13-4c3.5,4.5,7.4,8.3,11.2,11.4C327.9,482.6,330.9,483.3,334,483.2z"/>
			
				<linearGradient id="SVGID_8_" gradientUnits="userSpaceOnUse" x1="372.7023" y1="455.9924" x2="277.7156" y2="420.8122" gradientTransform="matrix(1.0151 -4.630000e-002 8.000000e-004 1 -3.3036 8.5121)">
				<stop  offset="0" style="stop-color:#E3E3E3"/>
				<stop  offset="5.496633e-002" style="stop-color:#D6D6D6"/>
				<stop  offset="0.2722" style="stop-color:#AAAAAA"/>
				<stop  offset="0.4813" style="stop-color:#878787"/>
				<stop  offset="0.6775" style="stop-color:#6E6E6E"/>
				<stop  offset="0.8558" style="stop-color:#5F5F5F"/>
				<stop  offset="1" style="stop-color:#595959"/>
			</linearGradient>
			<path class="st7" d="M299.6,401.2c-5.4,20.4,0.6,40.4,1.9,44.4c0.4-4.5,2.1-8.8,6.4-11.4c0.9-0.6,3.8-2.3,8.9-2.3
				c5,0,10.6,1.7,16.6,4.9c4,2.2,7.7,4.9,10.8,7.9c0-0.2-0.1-0.3-0.2-0.5c-0.2-0.4-0.4-0.6-0.3-1.2c0.1-0.6,0.4-1.2,0.7-1.9
				c0.2-0.6,0.4-1.3,0.6-1.9c0.3-0.8,0.4-1.2,1.3-0.7c0,0,0-0.1,0.1-0.1C330.9,431.9,308.9,418.6,299.6,401.2z"/>
			<linearGradient id="SVGID_9_" gradientUnits="userSpaceOnUse" x1="358.456" y1="499.0329" x2="241.3536" y2="455.6617">
				<stop  offset="0" style="stop-color:#E3E3E3"/>
				<stop  offset="5.496633e-002" style="stop-color:#D6D6D6"/>
				<stop  offset="0.2722" style="stop-color:#AAAAAA"/>
				<stop  offset="0.4813" style="stop-color:#878787"/>
				<stop  offset="0.6775" style="stop-color:#6E6E6E"/>
				<stop  offset="0.8558" style="stop-color:#5F5F5F"/>
				<stop  offset="1" style="stop-color:#595959"/>
			</linearGradient>
			<path class="st8" d="M342.5,492.6c-0.2-0.3-1.2-1.8-1.4-2.1c-1.6,0.3-3.2,0.3-4.7,0.3c1.3,2.9,10.3,6.1,10.3,6.1
				C345.1,495.8,343.4,493.9,342.5,492.6z"/>
		</g>
		<path class="st9" d="M361.7,349.6c0,0,24,4.6,11.2,25.2c-0.5-0.1,0.8-2.8,0.8-6.4c0-5-1.6-11.3-11.1-15.3
			C353.3,349.2,355.6,348.2,361.7,349.6z"/>
		<path class="st9" d="M349.5,361.1c0,0,7.5-0.1,6.3,3.8c-0.8,2.5-3.8,3.7-5.9,4.9c-1.3,0.7-2.8,1.9-3.3,3.4
			c-0.6,1.9,0.9,3.2,2.3,4.2c0.2,0.2,1,0.4,1.2,0.5c-1.4,0.1-3.6-0.9-4.4-2c-0.7-1-0.6-2.4-0.1-3.5c0.6-1.3,1.6-2.2,1.9-3.7
			c0.4-1.7,0-3.7-1.5-4.8c-0.5-0.3-2.1-1-2.7-0.6C343.3,363.3,345.8,361.5,349.5,361.1z"/>
		<path class="st9" d="M329.2,367.1c0,0,0-1.2-1,0.1c-1.6,2-3.5,6.6-3,12.7c0.9,7.3,6.2,14.5,19.5,16.4c2,0.3,4,0.4,6,0.4
			c2,0,4.1-0.1,6.1-0.3c1.2-0.1,2.3-0.3,3.5-0.5c1.6-0.4,2.6-0.8,2.1-1.5c-0.1-0.2-1,0.1-1.2,0.2c-0.9,0.1-1.8,0.2-2.7,0.3
			c-8.3,0.6-18-0.9-23.2-4.1C320.7,382,329.2,367.1,329.2,367.1z"/>
		
			<radialGradient id="SVGID_10_" cx="278.5027" cy="472.5806" r="11.0091" gradientTransform="matrix(2.6032 0 4.890000e-002 2.1261 -344.8183 -574.2433)" gradientUnits="userSpaceOnUse">
			<stop  offset="0" style="stop-color:#EDEDED"/>
			<stop  offset="1" style="stop-color:#888888"/>
		</radialGradient>
		<path class="st10" d="M355.7,420.3c-1.9-0.3-5.9,5.7-6.1,7.6c-0.2,1.8,6.9,3.4,11.4,5.1c4,0.8,15.7,5.9,21.8,3.5
			c6.1-2.4,13.7-7.1,25.9-8.2c4.7-0.4,7.6-0.7,13.8,0.6c0,0-7-5.5-25.8-0.6c-5.2,1.7-7.6,3.1-13.6,4.7c-8.9,1.5-23.3-2.9-25.5-5
			c-2.6-2.5-3.1-6.5-0.2-6.4s13.3,0.9,15.5,0.1C375,420.9,364.6,421.9,355.7,420.3z"/>
		
			<radialGradient id="SVGID_11_" cx="276.2484" cy="411.3948" r="14.6197" gradientTransform="matrix(2.4963 0 0 2.4963 -322.1899 -629.4227)" gradientUnits="userSpaceOnUse">
			<stop  offset="0" style="stop-color:#EDEDED"/>
			<stop  offset="1" style="stop-color:#888888"/>
		</radialGradient>
		<path class="st11" d="M373.1,410.1c0,0,23.1-8.3,29-14.2c0,0,2.9-0.3,1.8,0.5c-10.7,7.4-21.5,9.5-22.7,11.5
			c-0.5,0.8,4,1.8,11.9,0.4c10.7-1.9,24-3.5,34.7-0.3c2,0.6,3.7,1.8,0.1,0.9c-5.4-1.5-15.4-2.4-28.3-0.3
			C387,410.5,374.4,410.3,373.1,410.1z"/>
		
			<radialGradient id="SVGID_12_" cx="290.268" cy="414.8235" r="12.5758" gradientTransform="matrix(2.6588 0 0 2.6077 -351.7198 -653.4257)" gradientUnits="userSpaceOnUse">
			<stop  offset="0" style="stop-color:#EDEDED"/>
			<stop  offset="1" style="stop-color:#888888"/>
		</radialGradient>
		<path class="st12" d="M356.5,418c0.6,0,1.3,0.3,1.9,0.3c0.8,0.1,1.7,0.2,2.5,0.3c9.4,0.9,18.9,0.4,28.2-0.8
			c22.8-2.9,42-4.2,52.9,11.1c3.8,5.3-7.2,7.4-7.2,7.4s-2.8-4.8-11.7-7.3c0,0-2.3-1.3,1.3-7.1c1.8-2.9-5.7-3.6-16-3.8
			c-8.1-0.2-16.2,1-24.2,1.5c-5.1,0.3-10.2,0.5-15.3,0.4c-1.4,0-13.5-0.3-13-2C356.2,418,356.3,418,356.5,418z"/>
		
			<radialGradient id="SVGID_13_" cx="270.1427" cy="428.3743" r="9.9378" gradientTransform="matrix(2.6588 0 0 2.6077 -351.7198 -653.4257)" gradientUnits="userSpaceOnUse">
			<stop  offset="0" style="stop-color:#EDEDED"/>
			<stop  offset="1" style="stop-color:#888888"/>
		</radialGradient>
		<path class="st13" d="M345.6,437.4c0,0,8.5,4.6,20.7,6.7c11.8,2,7.9,8.1,6.7,13.7c0,0-4.1,15.2,0.6,22.8c0,0-5.7-5-3.2-20.4
			c3.1-14.2-5.1-14.2-11.5-14.9c-4.4-0.5-5.3,12.2-5.3,12.2s-3.9-6.7-8.5-12.5c-0.9-1.1-1.4-1.9-1.4-1.9S344.7,439.3,345.6,437.4z"
			/>
		<path class="st14" d="M365.7,443.5c-3.3-0.8-6.5-1.8-6.5-1.8c-52.1-18.3-58.9-44.6-58.9-44.6l-0.2,0.4c0,0,6.8,27.6,58.9,44.6
			c0,0,3,1,6.2,1.9c1.7,0.5,3.5,0.8,5.2,1.4c1.3,0.4,2.5,1.3,3.4,2.4c0.2,0.2,0.3,0.5,0.4,0.7c0.3,0.3,0.5,0.3,0.4-0.2
			c-0.1-0.6-0.3-1.4-0.8-1.8c-1-1-2.4-1.7-3.7-2.1C368.8,444.1,367.3,443.9,365.7,443.5z"/>
		<path class="st15" d="M345.9,395.2c-5-1.1-12.2-2.8-16.1-7.4c-3-3.5-4.4-7.5-3.9-12.2c0.3-2.8,1.8-6.6,2.3-7.3
			c0.6-0.9-0.2,1.2-0.5,1.8c-0.3,0.8-0.5,1.6-0.7,2.5c-0.3,1.3-0.5,2.7-0.5,4.1c-0.1,4.3,1.4,7.7,3.5,10.3c2.3,2.9,5.5,4.5,8.9,5.7
			c2.4,0.9,4.5,1.5,7.1,2c0,0,1.2,0.1,1.2,0.2C349,395.6,345.9,395.2,345.9,395.2z"/>
		<path class="st15" d="M420.7,455.7c-0.2,0.5-0.2,1.2-0.4,1.7c-0.2,0.7-0.5,1.3-1,1.8c-1.2,1.7-3,3.1-5,3.4
			c-2.2,0.4-4.9,0.7-6.5,3.3c0.4,0.1,0.6-0.3,0.9-0.6c1.8-1.7,4.1-1.9,5.5-2.2c2-0.5,4-1.5,5.3-3.1c0.5-0.7,0.9-1.4,1.2-2.2
			C420.9,457.5,421.2,455.8,420.7,455.7z"/>
		<path class="st15" d="M316.6,454.2c0,0,0.2,2.2,4.2,4c2.2,1,5.4,2.1,6.4,4.4c0.9,2.1-0.1,2.6,0.3,2.8c0.6,0.2,0.9-1.1,0.7-1.9
			c-0.4-1.7-1.5-3.4-4-4.4C319.9,457.4,317.8,456.3,316.6,454.2z"/>
		<linearGradient id="SVGID_14_" gradientUnits="userSpaceOnUse" x1="261.1369" y1="360.5629" x2="326.8935" y2="394.0062">
			<stop  offset="0" style="stop-color:#E3E3E3"/>
			<stop  offset="5.496633e-002" style="stop-color:#D6D6D6"/>
			<stop  offset="0.2722" style="stop-color:#AAAAAA"/>
			<stop  offset="0.4813" style="stop-color:#878787"/>
			<stop  offset="0.6775" style="stop-color:#6E6E6E"/>
			<stop  offset="0.8558" style="stop-color:#5F5F5F"/>
			<stop  offset="1" style="stop-color:#595959"/>
		</linearGradient>
		<path class="st16" d="M310.4,377.8c0.1-0.5-0.5-0.6-0.5-1c-2.5,3.1-3.5,4.5-5.6,8.8c0.7,1.4,0.8,4.8,1.9,6.4
			c0.9-3.2,2.3-6.5,4.1-9.8C310.1,380.8,310.1,379.3,310.4,377.8z"/>
		<linearGradient id="SVGID_15_" gradientUnits="userSpaceOnUse" x1="216.473" y1="420.6714" x2="300.8501" y2="463.5848">
			<stop  offset="0" style="stop-color:#E3E3E3"/>
			<stop  offset="5.496633e-002" style="stop-color:#D6D6D6"/>
			<stop  offset="0.2722" style="stop-color:#AAAAAA"/>
			<stop  offset="0.4813" style="stop-color:#878787"/>
			<stop  offset="0.6775" style="stop-color:#6E6E6E"/>
			<stop  offset="0.8558" style="stop-color:#5F5F5F"/>
			<stop  offset="1" style="stop-color:#595959"/>
		</linearGradient>
		<path class="st17" d="M342.2,479.5c-3.4-1.4-6.8-3.3-10-5.6c-0.9,0.6-2,0.9-3.2,1c-0.7,0.1-1.5,0.1-2.2,0.1
			c-4.3-0.1-7.4-1.2-10.6-3.1c3.6,3.7,5.6,6.5,9.3,9.7C335.3,484.6,339.6,481.6,342.2,479.5z"/>
		<linearGradient id="SVGID_16_" gradientUnits="userSpaceOnUse" x1="224.5454" y1="408.2836" x2="307.4796" y2="450.4633">
			<stop  offset="0" style="stop-color:#E3E3E3"/>
			<stop  offset="5.496633e-002" style="stop-color:#D6D6D6"/>
			<stop  offset="0.2722" style="stop-color:#AAAAAA"/>
			<stop  offset="0.4813" style="stop-color:#878787"/>
			<stop  offset="0.6775" style="stop-color:#6E6E6E"/>
			<stop  offset="0.8558" style="stop-color:#5F5F5F"/>
			<stop  offset="1" style="stop-color:#595959"/>
		</linearGradient>
		<path class="st18" d="M309.9,451.9c1,5.1,5.4,12.1,10.9,14.3c1.3,0.5,3.9,1.1,5.6,0.4c-6.8-6.7-12.5-13-15.6-23.4
			C309.5,445.2,309.4,447.8,309.9,451.9z"/>
		
			<linearGradient id="SVGID_17_" gradientUnits="userSpaceOnUse" x1="224.0929" y1="378.0383" x2="309.556" y2="421.504" gradientTransform="matrix(1 0 2.410000e-002 1.0475 -3.1366 -7.0489)">
			<stop  offset="0" style="stop-color:#E3E3E3"/>
			<stop  offset="5.496633e-002" style="stop-color:#D6D6D6"/>
			<stop  offset="0.2722" style="stop-color:#AAAAAA"/>
			<stop  offset="0.4813" style="stop-color:#878787"/>
			<stop  offset="0.6775" style="stop-color:#6E6E6E"/>
			<stop  offset="0.8558" style="stop-color:#5F5F5F"/>
			<stop  offset="1" style="stop-color:#595959"/>
		</linearGradient>
		<path class="st19" d="M297.8,409.8c-2,15.5-0.6,29.5,3.7,41.8c-0.6-5.9,0.2-12.6,5-16.4c-2.4-8.7-3.6-18.4-3-27.9
			c-1.6-2.2-2.9-4.5-4.1-6.8C298.8,403.4,298.2,406.5,297.8,409.8z"/>
		
			<linearGradient id="SVGID_18_" gradientUnits="userSpaceOnUse" x1="289.7327" y1="457.9327" x2="392.1505" y2="510.0215" gradientTransform="matrix(1 0 -0.3169 0.8463 69.8187 34.2754)">
			<stop  offset="0" style="stop-color:#E3E3E3"/>
			<stop  offset="5.496633e-002" style="stop-color:#D6D6D6"/>
			<stop  offset="0.2722" style="stop-color:#AAAAAA"/>
			<stop  offset="0.4813" style="stop-color:#878787"/>
			<stop  offset="0.6775" style="stop-color:#6E6E6E"/>
			<stop  offset="0.8558" style="stop-color:#5F5F5F"/>
			<stop  offset="1" style="stop-color:#595959"/>
		</linearGradient>
		<path class="st20" d="M350.5,484.8c-3.8,3.7-6.8,5.1-9.3,5.5c1.7,2.8,3.1,5,6.8,6.8c3.3,1.6,8.7,2.6,15.1,4.3c0,0-0.6-2.2-2.5-5.5
			c-1.6-1-2.3-2.1-2.1-3.5C356.3,489.2,353.7,486.4,350.5,484.8z"/>
		<path class="st21" d="M447.8,445.6c0-0.2-0.1-0.4-0.1-0.7c-2,6.3-4.6,10.7-9.8,17.5c-3.3,6.9-9.9,13.9-19.2,17.6
			c-1.5,0.6-2.9,1-4.2,1.4c-6.1,5.5-12.4,7.9-15.9,9c0,0,6.2,1,14.7-1.1c6.9-1.8,27-9.2,33.8-34.3
			C447.1,452.8,447.7,448.9,447.8,445.6z"/>
		<path class="st22" d="M378.2,341.4c5.7,0.7,44.6,6.4,62.3,35.3c0.7,0.8,1.3,1.3,1.7,1.3c0.2-1-0.7-2.3-1.5-3.6
			C430.1,357.8,404.8,342.6,378.2,341.4z"/>
		<path class="st15" d="M314.9,395.8c-1.6-2.8-2.8-5.8-3.7-8.9c-0.5-1.7-0.9-3.5-1.1-5.3c-0.1-0.8-0.3-1.7-0.3-2.5
			c0-0.7,0.2-1.3,0.2-2c-1.1,0.4-0.8,2.9-0.7,3.7c0.1,1.9,0.6,3.9,1,5.8c0.9,3.5,2.1,7,4,10.1c4.9,8.3,13.2,13.9,21.2,17.3
			c9.6,4,18.2,5.8,26.5,6.3c6.7,0.4,13.3,0.1,20.2-0.6c6.4-0.6,13-1.5,20.2-2.2c1.6-0.2,3.3-0.3,4.9-0.3c5.9-0.2,11.8,0.4,17.4,2
			c2.4,0.7,4.8,1.6,7,2.7c1,0.5,2,1.2,3,1.7c0.3,0.2,1,0.5,0.9,0c-0.1-0.6-1.1-1-1.5-1.3c-4-2.7-8.6-4.3-13.3-5.2
			c-5.8-1.1-11.9-1.1-17.8-0.5c-7.2,0.7-13.8,1.6-20.2,2.2c-6.9,0.7-13.5,1-20.2,0.6c-8.4-0.5-16.9-2.3-26.5-6.3
			C328,409.8,319.8,404.1,314.9,395.8z"/>
		<path class="st15" d="M386.6,453.7c3.5-5.5,8.1-9.5,13.4-11.9c3.8-1.7,7.9-2.6,12.3-2.7c8.2-0.2,13.3,3.3,15.9,6.5
			c0.1,0.1,0.4,0.6,0.6,0.3c0.1-0.1,0-0.3-0.1-0.5c-0.2-0.3-0.4-0.6-0.7-0.9c-2.7-3.2-7.8-6.7-16.1-6.5c-4.5,0.1-8.7,1-12.5,2.7
			c-5.4,2.4-10,6.4-13.6,11.9c-1.5,2.4-2.8,5-3.6,7.7c-0.4,1.4-0.8,2.8-1,4.2c-0.3,1.7-0.3,3.4-0.1,5.1c0,0.2,0,0.6,0.2,0.8
			c0.6,0.5,0.4-1.4,0.4-1.6c0-0.9,0.1-1.8,0.2-2.7c0.4-2.9,1.2-5.7,2.4-8.3C385,456.4,385.7,455,386.6,453.7z"/>
		<path class="st15" d="M378.3,368.9c0,0-0.2,2.4-2.1,5.4c-3.3,5-10.7,11.7-23.9,11.1c0,0-2.5-0.4,0.3-0.3
			c4.8,0.1,24.4-2.3,25.1-21.7c0,0,0.7-0.3,0.8,1C378.5,365.6,378.6,367.2,378.3,368.9z"/>
	</g>
	<g>
		<g>
			<path class="st23" d="M-22.7,482c-0.5-0.3-1-0.5-1.5-0.8c-0.4-0.3-0.8-0.6-1.1-1c-0.3-0.4-0.5-0.8-0.7-1.4
				c-0.2-0.5-0.2-1.1-0.2-1.8c0-0.8,0.2-1.5,0.5-2.1c0.3-0.6,0.8-1.2,1.3-1.6c0.6-0.4,1.2-0.8,1.9-1c0.7-0.2,1.5-0.4,2.3-0.4
				c1,0,1.9,0.1,2.6,0.3c0.7,0.2,1.4,0.4,2.1,0.7c0.2,0.1,0.4,0.2,0.5,0.4c0.1,0.2,0.2,0.4,0.2,0.6c0,0.3-0.1,0.5-0.3,0.7
				c-0.2,0.2-0.4,0.3-0.7,0.3c-0.2,0-0.3,0-0.4-0.1c-0.6-0.3-1.2-0.5-1.8-0.6c-0.6-0.2-1.3-0.2-2.1-0.2c-0.5,0-0.9,0.1-1.4,0.2
				c-0.5,0.1-0.9,0.3-1.3,0.6c-0.4,0.3-0.7,0.6-1,1c-0.2,0.4-0.4,0.9-0.4,1.5c0,0.7,0.2,1.4,0.6,1.9c0.4,0.5,1,0.9,1.7,1.3l3.2,1.5
				c0.5,0.3,1.1,0.6,1.6,0.9c0.5,0.3,1,0.7,1.4,1.1c0.4,0.4,0.7,0.9,0.9,1.5c0.2,0.6,0.4,1.3,0.4,2c0,0.9-0.2,1.7-0.5,2.4
				c-0.3,0.7-0.8,1.3-1.4,1.7c-0.6,0.5-1.2,0.8-2,1.1c-0.8,0.2-1.6,0.4-2.4,0.4c-0.9,0-1.7-0.1-2.6-0.3c-0.8-0.2-1.6-0.5-2.4-0.8
				c-0.2-0.1-0.3-0.2-0.4-0.4c-0.1-0.2-0.2-0.3-0.2-0.5c0-0.3,0.1-0.5,0.3-0.7c0.2-0.2,0.4-0.3,0.7-0.3c0.2,0,0.3,0,0.4,0.1
				c0.7,0.3,1.3,0.6,2,0.7c0.7,0.2,1.4,0.3,2.1,0.3c1.4,0,2.5-0.3,3.2-1c0.7-0.6,1-1.5,1-2.7c0-0.5-0.1-0.9-0.3-1.3
				c-0.2-0.4-0.4-0.7-0.7-1c-0.3-0.3-0.6-0.6-1-0.8c-0.4-0.2-0.7-0.4-1.1-0.6L-22.7,482z"/>
			<path class="st23" d="M-10.2,474.5c-0.4,0-0.7-0.1-0.9-0.4c-0.3-0.3-0.4-0.6-0.4-0.9c0-0.4,0.1-0.7,0.4-0.9
				c0.3-0.3,0.6-0.4,0.9-0.4c0.4,0,0.7,0.1,0.9,0.4c0.3,0.3,0.4,0.6,0.4,0.9c0,0.4-0.1,0.7-0.4,0.9C-9.5,474.4-9.8,474.5-10.2,474.5
				z M-11.1,478.7c0-0.3,0.1-0.5,0.3-0.7c0.2-0.2,0.4-0.3,0.7-0.3c0.3,0,0.5,0.1,0.7,0.3c0.2,0.2,0.3,0.4,0.3,0.7v13.2
				c0,0.3-0.1,0.5-0.3,0.7c-0.2,0.2-0.4,0.3-0.7,0.3c-0.3,0-0.5-0.1-0.7-0.3c-0.2-0.2-0.3-0.4-0.3-0.7V478.7z"/>
			<path class="st23" d="M-3.4,485.4c-0.7-0.3-1.3-0.7-1.8-1.3c-0.5-0.6-0.8-1.4-0.8-2.4c0-0.6,0.1-1.1,0.4-1.6
				c0.3-0.5,0.6-0.9,1-1.3c0.4-0.3,0.9-0.6,1.5-0.8c0.6-0.2,1.2-0.3,1.8-0.3c0.7,0,1.4,0.1,1.9,0.2c0.6,0.1,1.1,0.3,1.6,0.5
				c0.4,0.2,0.6,0.5,0.6,0.9c0,0.3-0.1,0.5-0.3,0.7c-0.2,0.2-0.4,0.2-0.7,0.2c-0.1,0-0.2,0-0.4-0.1c-0.9-0.4-1.9-0.6-3-0.6
				c-0.3,0-0.6,0-0.9,0.1c-0.3,0.1-0.6,0.2-0.8,0.3c-0.2,0.2-0.4,0.4-0.6,0.6c-0.2,0.3-0.2,0.6-0.2,0.9c0,0.6,0.2,1,0.5,1.3
				c0.3,0.3,0.6,0.5,1,0.7l2.7,1.1c0.9,0.3,1.6,0.9,2.1,1.5c0.5,0.7,0.8,1.5,0.8,2.3c0,0.6-0.1,1.2-0.3,1.7c-0.2,0.5-0.6,1-1,1.4
				c-0.4,0.4-0.9,0.7-1.5,0.9c-0.6,0.2-1.2,0.3-1.9,0.3c-0.8,0-1.4-0.1-2.1-0.2c-0.6-0.1-1.2-0.4-1.8-0.6c-0.4-0.2-0.6-0.5-0.6-0.9
				c0-0.3,0.1-0.5,0.3-0.7c0.2-0.2,0.4-0.3,0.7-0.3c0.1,0,0.1,0,0.2,0c0.1,0,0.1,0,0.2,0.1c0.5,0.2,1,0.4,1.5,0.5
				c0.5,0.1,1.1,0.2,1.6,0.2c0.7,0,1.3-0.2,1.8-0.6c0.5-0.4,0.8-0.9,0.8-1.6c0-0.6-0.1-1.1-0.5-1.5c-0.3-0.3-0.8-0.7-1.4-0.9
				L-3.4,485.4z"/>
			<path class="st23" d="M6.1,472.9c0-0.3,0.1-0.5,0.3-0.7c0.2-0.2,0.4-0.3,0.7-0.3c0.3,0,0.5,0.1,0.7,0.3c0.2,0.2,0.3,0.4,0.3,0.7
				v5.1h3.4c0.3,0,0.5,0.1,0.7,0.3c0.2,0.2,0.3,0.4,0.3,0.7c0,0.3-0.1,0.5-0.3,0.7c-0.2,0.2-0.4,0.3-0.7,0.3H8.1v9.1
				c0,0.6,0.2,1.1,0.5,1.5c0.4,0.4,0.8,0.5,1.3,0.5c0.2,0,0.5,0,0.8-0.1c0.3,0,0.6-0.1,0.7-0.1c0.2,0,0.4,0.1,0.6,0.2
				c0.2,0.2,0.3,0.4,0.3,0.7c0,0.2-0.1,0.4-0.2,0.6c-0.2,0.2-0.3,0.3-0.6,0.3c-0.3,0-0.6,0.1-0.8,0.1c-0.3,0-0.6,0-0.8,0
				c-0.5,0-1-0.1-1.5-0.3c-0.5-0.2-0.9-0.5-1.2-0.8c-0.3-0.3-0.6-0.8-0.8-1.3c-0.2-0.5-0.3-1-0.3-1.6V472.9z"/>
			<path class="st23" d="M17.3,485.9v1.6c0,1,0.3,1.9,0.9,2.5c0.6,0.6,1.4,1,2.5,1c0.6,0,1.2-0.1,1.7-0.2c0.6-0.2,1.1-0.4,1.6-0.6
				c0.1-0.1,0.3-0.1,0.4-0.1c0.3,0,0.5,0.1,0.7,0.3c0.2,0.2,0.3,0.4,0.3,0.7c0,0.4-0.2,0.7-0.6,0.9c-0.7,0.3-1.3,0.6-2,0.7
				c-0.7,0.1-1.4,0.2-2.1,0.2c-0.8,0-1.5-0.1-2.2-0.4c-0.7-0.3-1.2-0.6-1.7-1.1c-0.5-0.5-0.8-1-1.1-1.7c-0.3-0.7-0.4-1.4-0.4-2.2
				v-4.5c0-0.8,0.1-1.5,0.4-2.2c0.3-0.6,0.6-1.2,1.1-1.7c0.5-0.5,1-0.8,1.7-1.1c0.7-0.3,1.4-0.4,2.2-0.4c0.8,0,1.5,0.1,2.2,0.4
				c0.6,0.3,1.2,0.6,1.7,1.1c0.5,0.5,0.8,1,1.1,1.7c0.3,0.7,0.4,1.4,0.4,2.2v1.5c0,0.4-0.1,0.7-0.4,1c-0.3,0.3-0.6,0.4-1,0.4H17.3z
				 M24,482.9c0-1-0.3-1.9-0.9-2.5c-0.6-0.6-1.4-0.9-2.5-0.9c-1.1,0-1.9,0.3-2.5,0.9c-0.6,0.6-0.9,1.4-0.9,2.5v1.2H24V482.9z"/>
			<path class="st23" d="M44.9,482.6c0-0.4-0.1-0.8-0.2-1.2c-0.2-0.4-0.4-0.7-0.6-1c-0.3-0.3-0.6-0.5-1-0.7
				c-0.4-0.2-0.8-0.2-1.2-0.2c-1.1,0-2.1,0.3-3,1v11.4c0,0.3-0.1,0.5-0.3,0.7c-0.2,0.2-0.4,0.3-0.7,0.3c-0.3,0-0.5-0.1-0.7-0.3
				s-0.3-0.4-0.3-0.7v-10.3c0-0.3-0.1-0.6-0.2-0.9c-0.2-0.3-0.3-0.5-0.6-0.7c-0.3-0.2-0.5-0.3-0.8-0.4c-0.3-0.1-0.6-0.1-1-0.1
				c-1.2,0-2.3,0.2-3.4,0.6v11.8c0,0.3-0.1,0.5-0.3,0.7c-0.2,0.2-0.4,0.3-0.7,0.3c-0.3,0-0.5-0.1-0.7-0.3s-0.3-0.4-0.3-0.7v-12.1
				c0-0.3,0.1-0.5,0.2-0.8c0.2-0.2,0.4-0.4,0.6-0.5c0.7-0.3,1.5-0.5,2.2-0.6c0.7-0.1,1.5-0.2,2.3-0.2c0.7,0,1.4,0.1,2,0.4
				c0.6,0.2,1.1,0.6,1.5,1c0.6-0.4,1.3-0.8,2-1c0.7-0.2,1.4-0.4,2.2-0.4c0.7,0,1.3,0.1,1.9,0.4c0.6,0.3,1.1,0.6,1.6,1.1
				c0.5,0.5,0.8,1,1.1,1.6c0.3,0.6,0.4,1.3,0.4,2v9.2c0,0.3-0.1,0.5-0.3,0.7c-0.2,0.2-0.4,0.3-0.7,0.3c-0.3,0-0.5-0.1-0.7-0.3
				c-0.2-0.2-0.3-0.4-0.3-0.7V482.6z"/>
			<path class="st23" d="M60.4,490.9c0,0.3-0.1,0.6-0.3,0.8c-0.2,0.2-0.4,0.4-0.7,0.5c-0.7,0.2-1.4,0.4-2.1,0.5
				c-0.7,0.1-1.5,0.2-2.2,0.2c-1.8,0-3.1-0.4-4.1-1.3c-0.9-0.8-1.3-1.8-1.3-3.2c0-1.4,0.4-2.4,1.3-3.2c0.5-0.4,1-0.7,1.7-0.9
				c0.7-0.2,1.5-0.3,2.4-0.3h3.3v-1.8c0-0.9-0.3-1.5-0.8-2c-0.6-0.4-1.3-0.7-2.2-0.7c-0.6,0-1.1,0.1-1.7,0.2
				c-0.5,0.2-1.1,0.4-1.7,0.7c-0.2,0.1-0.3,0.1-0.5,0.1c-0.3,0-0.5-0.1-0.7-0.2c-0.2-0.2-0.3-0.4-0.3-0.7c0-0.4,0.2-0.7,0.5-0.9
				c0.7-0.4,1.4-0.7,2.1-0.9c0.7-0.2,1.5-0.3,2.2-0.3c0.7,0,1.3,0.1,1.9,0.3c0.6,0.2,1.2,0.5,1.6,0.8c0.5,0.4,0.8,0.8,1.1,1.4
				c0.3,0.6,0.4,1.2,0.4,1.9V490.9z M58.4,485.9h-3.3c-0.7,0-1.3,0.1-1.8,0.2c-0.4,0.2-0.8,0.4-1,0.6c-0.2,0.3-0.4,0.5-0.5,0.8
				c-0.1,0.3-0.1,0.6-0.1,0.9c0,0.3,0,0.6,0.1,0.9c0.1,0.3,0.2,0.6,0.5,0.9c0.2,0.3,0.6,0.5,1,0.6c0.5,0.2,1,0.2,1.8,0.2
				c1.1,0,2.2-0.2,3.3-0.5V485.9z"/>
			<path class="st23" d="M74.5,492.9c-0.8,0-1.5-0.1-2.2-0.4c-0.7-0.3-1.2-0.6-1.7-1.1c-0.5-0.5-0.8-1-1.1-1.7
				c-0.3-0.7-0.4-1.4-0.4-2.2v-4.5c0-1.6,0.5-2.9,1.4-3.9c1-1,2.2-1.4,3.9-1.4c0.6,0,1.2,0.1,1.8,0.2c0.6,0.2,1.1,0.4,1.6,0.6v-5.7
				c0-0.3,0.1-0.5,0.3-0.7c0.2-0.2,0.4-0.3,0.7-0.3c0.3,0,0.5,0.1,0.7,0.3c0.2,0.2,0.3,0.4,0.3,0.7v18c0,0.3-0.1,0.6-0.3,0.8
				c-0.2,0.2-0.4,0.4-0.7,0.5c-0.7,0.2-1.4,0.4-2.1,0.5C76,492.9,75.3,492.9,74.5,492.9z M71.2,487.7c0,1,0.3,1.9,0.9,2.5
				c0.6,0.6,1.4,0.9,2.4,0.9c1.1,0,2.3-0.2,3.4-0.5v-9.9c-0.5-0.4-1-0.7-1.5-0.9c-0.6-0.2-1.2-0.3-1.8-0.3c-1,0-1.9,0.3-2.4,0.9
				c-0.6,0.6-0.9,1.4-0.9,2.5V487.7z"/>
			<path class="st23" d="M84.7,485.9v1.6c0,1,0.3,1.9,0.9,2.5c0.6,0.6,1.4,1,2.5,1c0.6,0,1.2-0.1,1.7-0.2c0.6-0.2,1.1-0.4,1.6-0.6
				c0.1-0.1,0.3-0.1,0.4-0.1c0.3,0,0.5,0.1,0.7,0.3c0.2,0.2,0.3,0.4,0.3,0.7c0,0.4-0.2,0.7-0.6,0.9c-0.7,0.3-1.3,0.6-2,0.7
				c-0.7,0.1-1.4,0.2-2.1,0.2c-0.8,0-1.5-0.1-2.2-0.4c-0.7-0.3-1.2-0.6-1.7-1.1c-0.5-0.5-0.8-1-1.1-1.7c-0.3-0.7-0.4-1.4-0.4-2.2
				v-4.5c0-0.8,0.1-1.5,0.4-2.2c0.3-0.6,0.6-1.2,1.1-1.7c0.5-0.5,1-0.8,1.7-1.1c0.7-0.3,1.4-0.4,2.2-0.4c0.8,0,1.5,0.1,2.2,0.4
				c0.7,0.3,1.2,0.6,1.7,1.1c0.5,0.5,0.8,1,1.1,1.7c0.3,0.7,0.4,1.4,0.4,2.2v1.5c0,0.4-0.1,0.7-0.4,1c-0.3,0.3-0.6,0.4-1,0.4H84.7z
				 M91.4,482.9c0-1-0.3-1.9-0.9-2.5c-0.6-0.6-1.4-0.9-2.5-0.9c-1,0-1.9,0.3-2.5,0.9c-0.6,0.6-0.9,1.4-0.9,2.5v1.2h6.7V482.9z"/>
			<path class="st23" d="M116.9,476.4l-5.3,10.4c-0.2,0.4-0.6,0.6-1,0.6c-0.5,0-0.8-0.2-1.1-0.6l-5.3-10.4v15.5
				c0,0.3-0.1,0.5-0.3,0.7c-0.2,0.2-0.4,0.3-0.7,0.3c-0.3,0-0.5-0.1-0.7-0.3c-0.2-0.2-0.3-0.4-0.3-0.7v-18.8c0-0.3,0.1-0.6,0.3-0.8
				c0.2-0.2,0.5-0.4,0.8-0.4c0.5,0,0.8,0.2,1.1,0.7l6.2,11.9l6.2-11.9c0.3-0.5,0.6-0.7,1.1-0.7c0.3,0,0.6,0.1,0.8,0.4
				c0.2,0.2,0.3,0.5,0.3,0.8v18.8c0,0.3-0.1,0.5-0.3,0.7c-0.2,0.2-0.4,0.3-0.7,0.3c-0.3,0-0.5-0.1-0.7-0.3c-0.2-0.2-0.3-0.4-0.3-0.7
				V476.4z"/>
			<path class="st23" d="M123.9,485.9v1.6c0,1,0.3,1.9,0.9,2.5c0.6,0.6,1.4,1,2.5,1c0.6,0,1.1-0.1,1.7-0.2c0.6-0.2,1.1-0.4,1.6-0.6
				c0.1-0.1,0.3-0.1,0.4-0.1c0.3,0,0.5,0.1,0.7,0.3c0.2,0.2,0.3,0.4,0.3,0.7c0,0.4-0.2,0.7-0.6,0.9c-0.7,0.3-1.3,0.6-2,0.7
				c-0.7,0.1-1.4,0.2-2.1,0.2c-0.8,0-1.5-0.1-2.2-0.4c-0.7-0.3-1.2-0.6-1.7-1.1c-0.5-0.5-0.8-1-1.1-1.7c-0.3-0.7-0.4-1.4-0.4-2.2
				v-4.5c0-0.8,0.1-1.5,0.4-2.2c0.3-0.6,0.6-1.2,1.1-1.7c0.5-0.5,1-0.8,1.7-1.1c0.7-0.3,1.4-0.4,2.2-0.4c0.8,0,1.5,0.1,2.2,0.4
				c0.6,0.3,1.2,0.6,1.7,1.1c0.5,0.5,0.8,1,1.1,1.7c0.3,0.7,0.4,1.4,0.4,2.2v1.5c0,0.4-0.1,0.7-0.4,1c-0.3,0.3-0.6,0.4-1,0.4H123.9z
				 M130.6,482.9c0-1-0.3-1.9-0.9-2.5c-0.6-0.6-1.4-0.9-2.4-0.9c-1.1,0-1.9,0.3-2.5,0.9c-0.6,0.6-0.9,1.4-0.9,2.5v1.2h6.7V482.9z"/>
			<path class="st23" d="M140.8,492.9c-0.8,0-1.5-0.1-2.2-0.4c-0.6-0.3-1.2-0.6-1.7-1.1c-0.5-0.5-0.8-1-1.1-1.7
				c-0.3-0.7-0.4-1.4-0.4-2.2v-4.5c0-1.6,0.5-2.9,1.4-3.9c1-1,2.2-1.4,3.9-1.4c0.6,0,1.2,0.1,1.8,0.2c0.6,0.2,1.1,0.4,1.6,0.6v-5.7
				c0-0.3,0.1-0.5,0.3-0.7c0.2-0.2,0.4-0.3,0.7-0.3c0.3,0,0.5,0.1,0.7,0.3c0.2,0.2,0.3,0.4,0.3,0.7v18c0,0.3-0.1,0.6-0.3,0.8
				c-0.2,0.2-0.4,0.4-0.7,0.5c-0.7,0.2-1.4,0.4-2.1,0.5C142.3,492.9,141.5,492.9,140.8,492.9z M137.4,487.7c0,1,0.3,1.9,0.9,2.5
				c0.6,0.6,1.4,0.9,2.5,0.9c1.1,0,2.3-0.2,3.4-0.5v-9.9c-0.4-0.4-1-0.7-1.5-0.9c-0.6-0.2-1.2-0.3-1.8-0.3c-1.1,0-1.9,0.3-2.5,0.9
				c-0.6,0.6-0.9,1.4-0.9,2.5V487.7z"/>
			<path class="st23" d="M150.3,474.5c-0.4,0-0.7-0.1-0.9-0.4c-0.3-0.3-0.4-0.6-0.4-0.9c0-0.4,0.1-0.7,0.4-0.9
				c0.3-0.3,0.6-0.4,0.9-0.4c0.4,0,0.7,0.1,0.9,0.4c0.3,0.3,0.4,0.6,0.4,0.9c0,0.4-0.1,0.7-0.4,0.9
				C151,474.4,150.7,474.5,150.3,474.5z M149.3,478.7c0-0.3,0.1-0.5,0.3-0.7c0.2-0.2,0.4-0.3,0.7-0.3c0.3,0,0.5,0.1,0.7,0.3
				c0.2,0.2,0.3,0.4,0.3,0.7v13.2c0,0.3-0.1,0.5-0.3,0.7s-0.4,0.3-0.7,0.3c-0.3,0-0.5-0.1-0.7-0.3c-0.2-0.2-0.3-0.4-0.3-0.7V478.7z"
				/>
			<path class="st23" d="M165.8,487.3c0,0.8-0.1,1.6-0.4,2.3c-0.3,0.7-0.6,1.3-1.1,1.8c-0.5,0.5-1.1,0.9-1.8,1.2
				c-0.7,0.3-1.5,0.4-2.3,0.4c-0.8,0-1.6-0.1-2.3-0.4c-0.7-0.3-1.3-0.7-1.8-1.2c-0.5-0.5-0.9-1.1-1.1-1.8c-0.3-0.7-0.4-1.5-0.4-2.3
				v-3.9c0-0.8,0.1-1.6,0.4-2.3c0.3-0.7,0.6-1.3,1.1-1.8c0.5-0.5,1.1-0.9,1.8-1.2c0.7-0.3,1.5-0.4,2.3-0.4c0.8,0,1.6,0.1,2.3,0.4
				c0.7,0.3,1.3,0.7,1.8,1.2c0.5,0.5,0.9,1.1,1.1,1.8c0.3,0.7,0.4,1.5,0.4,2.3V487.3z M163.8,483.2c0-1.1-0.3-2-0.9-2.7
				c-0.6-0.6-1.5-1-2.7-1c-1.1,0-2,0.3-2.7,1c-0.6,0.6-0.9,1.5-0.9,2.7v4.2c0,1.1,0.3,2,0.9,2.7c0.6,0.6,1.5,1,2.7,1
				c1.2,0,2-0.3,2.7-1c0.6-0.6,0.9-1.5,0.9-2.7V483.2z"/>
			<path class="st23" d="M171.2,485.4c-0.7-0.3-1.3-0.7-1.8-1.3c-0.5-0.6-0.8-1.4-0.8-2.4c0-0.6,0.1-1.1,0.4-1.6
				c0.3-0.5,0.6-0.9,1-1.3c0.4-0.3,0.9-0.6,1.5-0.8c0.6-0.2,1.2-0.3,1.8-0.3c0.7,0,1.4,0.1,1.9,0.2c0.6,0.1,1.1,0.3,1.6,0.5
				c0.4,0.2,0.6,0.5,0.6,0.9c0,0.3-0.1,0.5-0.3,0.7c-0.2,0.2-0.4,0.2-0.7,0.2c-0.1,0-0.2,0-0.4-0.1c-0.9-0.4-1.9-0.6-3-0.6
				c-0.3,0-0.6,0-0.9,0.1c-0.3,0.1-0.6,0.2-0.8,0.3c-0.2,0.2-0.4,0.4-0.6,0.6c-0.2,0.3-0.2,0.6-0.2,0.9c0,0.6,0.2,1,0.5,1.3
				c0.3,0.3,0.6,0.5,1,0.7l2.7,1.1c0.9,0.3,1.6,0.9,2.1,1.5c0.5,0.7,0.8,1.5,0.8,2.3c0,0.6-0.1,1.2-0.4,1.7c-0.2,0.5-0.6,1-1,1.4
				c-0.4,0.4-0.9,0.7-1.5,0.9c-0.6,0.2-1.2,0.3-1.9,0.3c-0.8,0-1.4-0.1-2.1-0.2c-0.6-0.1-1.2-0.4-1.8-0.6c-0.4-0.2-0.6-0.5-0.6-0.9
				c0-0.3,0.1-0.5,0.3-0.7c0.2-0.2,0.4-0.3,0.7-0.3c0.1,0,0.1,0,0.2,0c0.1,0,0.1,0,0.2,0.1c0.5,0.2,1,0.4,1.5,0.5
				c0.5,0.1,1.1,0.2,1.6,0.2c0.7,0,1.3-0.2,1.8-0.6c0.5-0.4,0.8-0.9,0.8-1.6c0-0.6-0.1-1.1-0.5-1.5c-0.3-0.3-0.8-0.7-1.4-0.9
				L171.2,485.4z"/>
			<path class="st23" d="M186.5,473.6c0-0.4,0.1-0.7,0.4-1c0.3-0.3,0.6-0.4,1-0.4h4.6c1.8,0,3.2,0.5,4.3,1.6
				c1.1,1.1,1.7,2.6,1.7,4.4c0,1.7-0.5,3.1-1.6,4.2c-1.1,1.1-2.6,1.6-4.4,1.6h-3.9v7.9c0,0.3-0.1,0.5-0.3,0.7
				c-0.2,0.2-0.4,0.3-0.7,0.3c-0.3,0-0.5-0.1-0.7-0.3c-0.2-0.2-0.3-0.4-0.3-0.7V473.6z M192.4,482c1.2,0,2.2-0.3,3-1
				c0.7-0.7,1-1.6,1-2.8c0-1.3-0.4-2.3-1.1-3c-0.7-0.7-1.7-1.1-2.9-1.1h-3.9v7.9H192.4z"/>
			<path class="st23" d="M210,478.7c0-0.3,0.1-0.5,0.3-0.7c0.2-0.2,0.4-0.3,0.7-0.3c0.3,0,0.5,0.1,0.7,0.3c0.2,0.2,0.3,0.4,0.3,0.7
				v12.2c0,0.3-0.1,0.6-0.2,0.8c-0.2,0.2-0.4,0.4-0.7,0.5c-0.7,0.2-1.4,0.4-2.2,0.5c-0.7,0.1-1.5,0.2-2.2,0.2c-1.7,0-3-0.5-3.9-1.4
				c-1-1-1.4-2.3-1.4-3.9v-8.9c0-0.3,0.1-0.5,0.3-0.7c0.2-0.2,0.4-0.3,0.7-0.3c0.3,0,0.5,0.1,0.7,0.3c0.2,0.2,0.3,0.4,0.3,0.7v9
				c0,1,0.3,1.9,0.9,2.5c0.6,0.6,1.4,0.9,2.5,0.9c1.1,0,2.2-0.2,3.3-0.5V478.7z M206.2,475.5c-0.2,0.1-0.4,0.2-0.6,0.2
				c-0.3,0-0.5-0.1-0.7-0.3c-0.2-0.2-0.3-0.4-0.3-0.6c0-0.4,0.1-0.6,0.4-0.8l3.1-1.9c0.1-0.1,0.3-0.1,0.5-0.1c0.3,0,0.5,0.1,0.7,0.3
				c0.2,0.2,0.3,0.4,0.3,0.7c0,0.4-0.2,0.6-0.5,0.8L206.2,475.5z"/>
			<path class="st23" d="M220.3,492.9c-0.8,0-1.5-0.1-2.3-0.2c-0.7-0.1-1.4-0.3-2.1-0.5c-0.3-0.1-0.5-0.3-0.7-0.5
				c-0.2-0.2-0.3-0.5-0.3-0.8v-18c0-0.3,0.1-0.5,0.3-0.7c0.2-0.2,0.4-0.3,0.7-0.3c0.3,0,0.5,0.1,0.7,0.3c0.2,0.2,0.3,0.4,0.3,0.7
				v5.7c0.5-0.3,1-0.5,1.6-0.6c0.6-0.2,1.1-0.2,1.7-0.2c1.6,0,2.9,0.5,3.9,1.4c1,1,1.4,2.3,1.4,3.9v4.5c0,0.8-0.1,1.5-0.4,2.2
				c-0.3,0.7-0.6,1.2-1.1,1.7c-0.5,0.5-1,0.8-1.7,1.1C221.8,492.8,221.1,492.9,220.3,492.9z M223.6,482.9c0-1-0.3-1.9-0.9-2.5
				c-0.6-0.6-1.4-0.9-2.4-0.9c-0.6,0-1.2,0.1-1.8,0.3c-0.6,0.2-1.1,0.5-1.5,0.9v9.9c1.1,0.3,2.2,0.5,3.4,0.5c1.1,0,1.9-0.3,2.4-0.9
				c0.6-0.6,0.9-1.4,0.9-2.5V482.9z"/>
			<path class="st23" d="M228.5,472.9c0-0.3,0.1-0.5,0.3-0.7c0.2-0.2,0.4-0.3,0.7-0.3c0.3,0,0.5,0.1,0.7,0.3
				c0.2,0.2,0.3,0.4,0.3,0.7v19c0,0.3-0.1,0.5-0.3,0.7c-0.2,0.2-0.4,0.3-0.7,0.3c-0.3,0-0.5-0.1-0.7-0.3c-0.2-0.2-0.3-0.4-0.3-0.7
				V472.9z"/>
			<path class="st23" d="M234.7,474.5c-0.4,0-0.7-0.1-0.9-0.4c-0.3-0.3-0.4-0.6-0.4-0.9c0-0.4,0.1-0.7,0.4-0.9
				c0.3-0.3,0.6-0.4,0.9-0.4c0.4,0,0.7,0.1,0.9,0.4c0.3,0.3,0.4,0.6,0.4,0.9c0,0.4-0.1,0.7-0.4,0.9
				C235.4,474.4,235.1,474.5,234.7,474.5z M233.7,478.7c0-0.3,0.1-0.5,0.3-0.7c0.2-0.2,0.4-0.3,0.7-0.3c0.3,0,0.5,0.1,0.7,0.3
				c0.2,0.2,0.3,0.4,0.3,0.7v13.2c0,0.3-0.1,0.5-0.3,0.7c-0.2,0.2-0.4,0.3-0.7,0.3c-0.3,0-0.5-0.1-0.7-0.3c-0.2-0.2-0.3-0.4-0.3-0.7
				V478.7z"/>
			<path class="st23" d="M238.9,483.1c0-0.8,0.1-1.5,0.4-2.2c0.3-0.6,0.6-1.2,1.1-1.7c0.5-0.5,1-0.8,1.7-1.1
				c0.7-0.3,1.4-0.4,2.2-0.4c1.3,0,2.6,0.3,3.8,0.9c0.4,0.2,0.6,0.5,0.6,0.9c0,0.3-0.1,0.5-0.3,0.7c-0.2,0.2-0.4,0.3-0.7,0.3
				c-0.2,0-0.3,0-0.4-0.1c-0.5-0.2-0.9-0.4-1.4-0.6c-0.5-0.1-1-0.2-1.5-0.2c-1.1,0-1.9,0.3-2.5,0.9c-0.6,0.6-0.9,1.4-0.9,2.5v4.8
				c0,1,0.3,1.9,0.9,2.5c0.6,0.6,1.4,0.9,2.5,0.9c0.5,0,1-0.1,1.5-0.2c0.5-0.1,1-0.3,1.4-0.5c0.2-0.1,0.3-0.1,0.4-0.1
				c0.3,0,0.5,0.1,0.7,0.3c0.2,0.2,0.3,0.4,0.3,0.7c0,0.4-0.2,0.7-0.6,0.9c-1.2,0.6-2.5,0.9-3.8,0.9c-0.8,0-1.5-0.1-2.2-0.4
				c-0.7-0.3-1.2-0.6-1.7-1.1c-0.5-0.5-0.8-1-1.1-1.7c-0.3-0.7-0.4-1.4-0.4-2.2V483.1z"/>
			<path class="st23" d="M262.7,487.3c0,0.8-0.1,1.6-0.4,2.3c-0.3,0.7-0.6,1.3-1.1,1.8c-0.5,0.5-1.1,0.9-1.8,1.2
				c-0.7,0.3-1.5,0.4-2.3,0.4c-0.8,0-1.6-0.1-2.3-0.4c-0.7-0.3-1.3-0.7-1.8-1.2c-0.5-0.5-0.9-1.1-1.1-1.8c-0.3-0.7-0.4-1.5-0.4-2.3
				v-3.9c0-0.8,0.1-1.6,0.4-2.3c0.3-0.7,0.6-1.3,1.1-1.8c0.5-0.5,1.1-0.9,1.8-1.2c0.7-0.3,1.5-0.4,2.3-0.4c0.8,0,1.6,0.1,2.3,0.4
				c0.7,0.3,1.3,0.7,1.8,1.2c0.5,0.5,0.9,1.1,1.1,1.8c0.3,0.7,0.4,1.5,0.4,2.3V487.3z M260.8,483.2c0-1.1-0.3-2-0.9-2.7
				c-0.6-0.6-1.5-1-2.7-1c-1.1,0-2,0.3-2.7,1c-0.6,0.6-0.9,1.5-0.9,2.7v4.2c0,1.1,0.3,2,0.9,2.7c0.6,0.6,1.5,1,2.7,1
				c1.1,0,2-0.3,2.7-1c0.6-0.6,0.9-1.5,0.9-2.7V483.2z"/>
			<path class="st23" d="M268.2,485.4c-0.7-0.3-1.3-0.7-1.8-1.3c-0.5-0.6-0.8-1.4-0.8-2.4c0-0.6,0.1-1.1,0.4-1.6
				c0.3-0.5,0.6-0.9,1-1.3c0.4-0.3,0.9-0.6,1.5-0.8c0.6-0.2,1.2-0.3,1.8-0.3c0.7,0,1.4,0.1,1.9,0.2c0.6,0.1,1.1,0.3,1.6,0.5
				c0.4,0.2,0.6,0.5,0.6,0.9c0,0.3-0.1,0.5-0.3,0.7c-0.2,0.2-0.4,0.2-0.7,0.2c-0.1,0-0.2,0-0.4-0.1c-0.9-0.4-1.9-0.6-3-0.6
				c-0.3,0-0.6,0-0.9,0.1c-0.3,0.1-0.6,0.2-0.8,0.3c-0.2,0.2-0.4,0.4-0.6,0.6c-0.2,0.3-0.2,0.6-0.2,0.9c0,0.6,0.2,1,0.5,1.3
				c0.3,0.3,0.6,0.5,1,0.7l2.7,1.1c0.9,0.3,1.6,0.9,2.1,1.5c0.5,0.7,0.8,1.5,0.8,2.3c0,0.6-0.1,1.2-0.4,1.7c-0.2,0.5-0.6,1-1,1.4
				c-0.4,0.4-0.9,0.7-1.5,0.9c-0.6,0.2-1.2,0.3-1.9,0.3c-0.8,0-1.4-0.1-2.1-0.2c-0.6-0.1-1.2-0.4-1.8-0.6c-0.4-0.2-0.6-0.5-0.6-0.9
				c0-0.3,0.1-0.5,0.3-0.7c0.2-0.2,0.4-0.3,0.7-0.3c0.1,0,0.1,0,0.2,0c0.1,0,0.1,0,0.2,0.1c0.5,0.2,1,0.4,1.5,0.5
				c0.5,0.1,1.1,0.2,1.6,0.2c0.7,0,1.3-0.2,1.8-0.6c0.5-0.4,0.8-0.9,0.8-1.6c0-0.6-0.2-1.1-0.5-1.5c-0.3-0.3-0.8-0.7-1.4-0.9
				L268.2,485.4z"/>
		</g>
		<g>
			<path class="st23" d="M19.3,413.2c6.6-1.5,12-4.7,16.1-9.6c4.6-5.5,6.9-12.5,6.9-20.8c0-9.7-3-17.7-9-23.7
				c-5.8-5.8-13.5-8.7-22.9-8.7h-27.5c-2.6,0-4.8,0.9-6.5,2.6c-1.8,1.7-2.6,3.9-2.6,6.5v97c0,2,0.7,3.7,2.2,5.1
				c1.4,1.4,3.2,2.2,5.1,2.2c2,0,3.7-0.7,5.1-2.2c1.4-1.4,2.2-3.2,2.2-5.1v-42.4H3.6l26,45.9c1.4,2.5,3.5,3.8,6.1,3.8
				c1.3,0,2.5-0.4,3.6-1.1c1.1-0.7,2-1.6,2.6-2.7c0.6-1.1,0.9-2.3,0.9-3.6c0-1.3-0.3-2.4-0.9-3.4L19.3,413.2z M27.8,382.9
				c0,5.7-1.5,10-4.5,12.8c-3.1,2.9-7.6,4.4-13.2,4.4h-21.7v-35.6h21.7c5.6,0,9.9,1.5,13,4.7c1.5,1.5,2.7,3.5,3.5,5.8
				C27.4,377.4,27.8,380,27.8,382.9z"/>
			<path class="st23" d="M112.7,350.4H50.8c-2,0-3.6,0.7-5,2.1c-1.4,1.4-2.1,3.1-2.1,5c0,2,0.7,3.7,2.1,5c1.4,1.3,3.1,2,5,2h23.6
				v92.1c0,2,0.7,3.7,2.2,5.1c1.4,1.4,3.2,2.2,5.1,2.2c2,0,3.7-0.7,5.1-2.2c1.4-1.4,2.2-3.2,2.2-5.1v-92.1h23.7c1.9,0,3.6-0.7,5-2
				c1.4-1.3,2.1-3,2.1-5c0-2-0.7-3.6-2.1-5C116.3,351.1,114.6,350.4,112.7,350.4z"/>
			<path class="st23" d="M201.1,350.4c-1.5,0-2.9,0.5-4.2,1.4c-1.2,0.9-2.1,2.1-2.7,3.6l-26,81.9l-26.1-81.8l0-0.1
				c-0.5-1.5-1.4-2.7-2.7-3.6c-1.3-0.9-2.7-1.4-4.2-1.4c-2.2,0-4,0.7-5.3,2.2c-1.2,1.4-1.9,3.1-1.9,5c0,0.5,0,0.9,0.1,1.2
				c0.1,0.3,0.2,0.7,0.3,1.1l32,98.5c1.3,3.6,3.9,5.6,7.6,5.6c3.8,0,6.5-1.9,7.8-5.6l31.9-98.4c0.1-0.4,0.2-0.7,0.3-1.1
				c0.1-0.4,0.1-0.8,0.1-1.2c0-2.1-0.7-3.8-2.1-5.2C204.7,351.1,203,350.4,201.1,350.4z"/>
			<path class="st23" d="M267.8,443.8c-0.6,0-1.3,0.1-1.9,0.2c-0.7,0.1-1.3,0.4-2.1,0.9c-2.5,1.7-5.1,3-7.7,3.9
				c-2.5,0.9-5.1,1.4-7.8,1.4c-7.7,0-13.8-2.2-18.1-6.5c-4.2-4.3-6.4-10.5-6.4-18.3V389c0-7.7,2.2-13.8,6.4-18.3
				c4.3-4.3,10.4-6.5,18.1-6.5c2.7,0,5.3,0.4,7.8,1.3c2.6,0.9,5.1,2.1,7.7,3.8c0.7,0.4,1.4,0.7,2,0.8c0.6,0.1,1.2,0.2,1.9,0.2
				c2.1,0,3.8-0.7,5.1-2.1c1.3-1.3,1.9-3,1.9-4.9c0-2.6-1.1-4.7-3.2-5.9c-3.7-2.2-7.5-4-11.3-5.2c-3.8-1.2-7.8-1.9-11.9-1.9
				c-11.7,0-21.2,3.6-28.3,10.7c-7.1,7.1-10.7,16.7-10.7,28.3v35.3c0,11.5,3.6,21,10.7,28.3c7.1,7.1,16.7,10.7,28.3,10.7
				c4.1,0,8.1-0.6,11.9-1.9c3.8-1.2,7.6-3,11.3-5.2c2.1-1.3,3.2-3.3,3.2-5.9c0-2.1-0.7-3.8-2-5.1
				C271.4,444.4,269.7,443.8,267.8,443.8z"/>
		</g>
	</g>
</g>
</svg>
