<svg xmlns="http://www.w3.org/2000/svg" xmlns:xlink="http://www.w3.org/1999/xlink" version="1.1" style="" xml:space="preserve" width="624" height="258.9999997764826"><rect id="backgroundrect" width="780" height="323.7499997206032" x="0" y="0" fill="none" stroke="none" class="" style=""/>
<style type="text/css">
	.st0{fill:#5BB950;}
	.st1{fill:#F69020;}
	.st2{fill:#015DA6;}
</style>

<g class="currentLayer" style=""><title>Layer 1</title><g id="svg_1" class="selected">
	<path class="st0" d="M98.4,83.19999999999999 c68,-20.2 138.5,-32 209.3,-32.8 c38.8,-0.6000000000000006 77.7,2.1 116.2,7.3 c52.9,7.1 105.2,19.2 155.8,36.4 c7.2,2.6 14.6,4.7 21.5,8 c-0.9,0.3000000000000003 -1.9,0.4 -2.7,0 c-69.9,-21.9 -142.6,-35.6 -215.9,-36.8 c-26.3,-0.5 -52.6,0.6000000000000006 -78.7,3.5 c-45.7,5 -91,16.9 -131.9,38.7 c-3.2,2.2 -7.1,1.2 -10.7,1.2 c-19.9,-0.2 -39.8,0.1 -59.6,-0.1 c2.7,-1.4 5.7,-2.8 7.5,-5.6 c2.9,-4 2.8,-9.7 0,-13.7 C106.7,85.5 102.5,83.69999999999999 98.4,83.19999999999999 " id="svg_2"/>
	<path class="st0" d="M23.799999999999997,108.19999999999999 c21.4,-7.9 43,-15.4 64.8,-22.2 c-3,2.6 -5.3,6.3 -5,10.4 c0,6.1 5.1,10.7 10.5,12.1 c-19.2,0 -38.4,-0.4 -57.7,-0.2 C32.3,108.30000000000001 28.1,108.5 23.799999999999997,108.19999999999999 " id="svg_3"/>
	<path class="st1" d="M93.7,85.69999999999999 c6.7,-2.3 15.4,2.3 15.8,10 c0.3000000000000003,7.1 -7.2,12.3 -13.7,11.2 c-5.2,-0.6000000000000006 -10.2,-4.9 -10.4,-10.4 C85.1,91.30000000000001 89.1,86.89999999999998 93.7,85.69999999999999 " id="svg_4"/>
	<path class="st2" d="M68.1,120.69999999999999 c4,0 8,0 12,0 c-2,1.8 -4,3.6 -5.6,5.8 c-15.8,21.3 -31.8,42.5 -47.6,63.8 c-5.3,0 -10.7,0 -16,0 c1.4,-20.9 3,-41.9 4.5,-62.8 c0.2,-2.3 -0.3000000000000003,-4.6 -0.8,-6.9 c7.2,0 14.4,0 21.6,0 c-0.8,1.6 -1.9,3.2 -1.9,5.1 c-1.3,16.4 -2.7,32.7 -3.9,49.1 c12.5,-17.2 25.2,-34.4 37.7,-51.6 C68.1,122.39999999999998 68.1,121.60000000000002 68.1,120.69999999999999 " id="svg_5"/>
	<path class="st2" d="M337.2,151 c6.6,0 13.1,0.1 19.7,0 c3.2,0 5.9,-2.3 7,-5.2 c1.5,-4 3.1,-7.9 4.5,-11.9 c0.7000000000000006,-1.7000000000000002 0,-4.1 -2.1,-4 c-6.8,-0.2 -13.6,0 -20.4,-0.1 C343,136.8 340.1,143.89999999999998 337.2,151 M330.8,120.69999999999999 c16.2,-0.1 32.5,0 48.7,0 c2.9,-0.1 6.1,1.5 7.1,4.5 c1,2.6 0.2,5.4 -0.8,7.8 c-2.5,6 -4.8,12.2 -7.3,18.2 c-2.3,5.3 -7.7,8.3 -13.2,8.9 c-0.3000000000000003,7.5 -0.9,14.9 -1.2,22.3 c-0.1,2.6 0.3000000000000003,5.3 1.1,7.8 c-6.7,0 -13.3,0 -20,0 c0.7000000000000006,-10.3 1.2,-20.6 2,-30.9 c-4.5,0 -9.1,0 -13.6,0.2 c-3,7.3 -5.9,14.6 -8.9,21.9 c-1.2,2.8 -1.8,5.8 -2.1,8.9 c-6.8,0 -13.5,0 -20.3,0 c4.2,-6.4 6.8,-13.6 9.8,-20.7 c4.5,-10.9 9.1,-21.8 13.6,-32.8 C327.7,131.7 329.9,126.39999999999998 330.8,120.69999999999999 " id="svg_6"/>
	<path class="st2" d="M484.7,161.89999999999998 c6.9,0.1 13.8,0 20.7,0 c0.3000000000000003,-8.5 0.3000000000000003,-16.9 0.4,-25.4 C498.70000000000005,144.89999999999998 491.7,153.39999999999998 484.7,161.89999999999998 M505,120.69999999999999 c6.6,0 13.1,0 19.7,0 c-0.1,15.3 -0.2,30.5 -0.4,45.8 c0.2,8 -0.8,16 0.6000000000000006,23.9 c-7.4,0 -14.8,0 -22.2,0 c2.7,-6.2 2.7,-13.2 2.7,-19.9 c-9.2,0 -18.4,0 -27.7,0 c-4.9,6.3 -10.3,12.4 -13.5,19.9 c-3.9,0 -7.8,0 -11.7,0 c18.3,-21 35.3,-43.2 53,-64.7 C505.4,124 505.20000000000005,122.30000000000001 505,120.69999999999999 " id="svg_7"/>
	<path class="st2" d="M84.8,120.69999999999999 c6.6,0 13.3,0 20,0 c-1.3,1.9 -2.5,3.9 -3.4,6.1 c-8.7,21.2 -17.3,42.4 -25.9,63.6 h-19 c2.3,-3.7 4.4,-7.6 6,-11.7 c7.2,-17.7 14.3,-35.4 21.5,-53 C84.6,124.10000000000002 84.6,122.39999999999998 84.8,120.69999999999999 " id="svg_8"/>
	<path class="st2" d="M113.5,161.89999999999998 c6.9,0.1 13.7,0 20.6,0 c0.3000000000000003,-8.5 0.3000000000000003,-16.9 0.4,-25.4 C127.5,145 120.5,153.39999999999998 113.5,161.89999999999998 M133.8,120.69999999999999 c6.5,0 13.1,0 19.6,0 c-0.1,18.5 -0.3000000000000003,36.9 -0.4,55.4 c-0.3000000000000003,4.8 -0.1,9.6 0.6000000000000006,14.3 c-7.4,0 -14.8,0 -22.2,0 c2.7,-6.3 2.7,-13.2 2.7,-19.9 c-9.2,0 -18.4,0 -27.6,0 c-4.9,6.3 -10.3,12.4 -13.5,19.8 c-3.9,0.2 -7.8,0 -11.7,0.1 c18.4,-21 35.3,-43.2 53,-64.7 C134.1,124 134,122.39999999999998 133.8,120.69999999999999 " id="svg_9"/>
	<path class="st2" d="M185.4,120.69999999999999 c7.8,0 15.6,0 23.5,0 c-1.1,16.8 -2,33.5 -3,50.3 c13,-16.7 25.7,-33.6 38.6,-50.4 c7.5,0.1 14.9,0 22.4,0 c-1.9,2.7 -3.5,5.7 -4.8,8.8 c-7.1,17.4 -14.2,34.8 -21.3,52.2 c-1.2,2.8 -1.8,5.7 -2.3,8.7 c-6.6,0 -13.2,-0.2 -19.8,0.2 c5,-8.8 8.4,-18.4 12.4,-27.7 c4.3,-10.7 8.8,-21.2 13,-31.9 c-15.3,19.7 -30.3,39.6 -45.5,59.4 c-3.9,0 -7.7,0 -11.6,0 c1,-19.7 2.3,-39.3 3.4,-59 c-6.4,15.1 -12.4,30.4 -18.7,45.5 c-1.8,4.3 -3.6,8.8 -4.3,13.5 h-10.5 c2.1,-3.2 3.8,-6.6 5.2,-10.2 c6.7,-16.6 13.4,-33.2 20.2,-49.8 C183.3,127.19999999999999 185,124.19999999999999 185.4,120.69999999999999 " id="svg_10"/>
	<path class="st2" d="M273.6,120.69999999999999 c16.4,0 32.9,0 49.3,0 c-0.7000000000000006,3.6 -1.5,7.1 -2.2,10.7 c-3.7,-1.4 -7.6,-1.7000000000000002 -11.4,-1.7000000000000002 c-6.9,0 -13.7,0 -20.6,0 c-2.9,7.1 -5.7,14.2 -8.6,21.3 c6.6,0 13.2,0 19.8,0 c3.4,0.1 6.7,-0.7000000000000006 9.9,-1.6 c-1.4,3.9 -2.8,7.7 -4.2,11.6 c-2.4,-0.6000000000000006 -4.8,-1.1 -7.2,-1.1 c-7.3,0 -14.6,0 -21.9,0 c-3.1,7.2 -6.2,14.4 -9.2,21.6 c5.7,0.1 11.4,0 17.1,0.1 c5.4,0 10.8,0 16.1,-1.5 c-1.8,3.4 -3.7,6.8 -5.4,10.2 c-16.6,0.1 -33.1,0 -49.7,0.1 c5.2,-9.7 9.1,-20.1 13.3,-30.3 c4.1,-10.1 8.3,-20.2 12.5,-30.4 C272.3,126.89999999999998 273.1,123.80000000000001 273.6,120.69999999999999 " id="svg_11"/>
	<path class="st2" d="M401.4,120.69999999999999 c6.6,0 13.3,0 19.9,0 c-1.2,1.8 -2.4,3.5 -3.2,5.5 c-8.8,21.4 -17.4,42.8 -26.2,64.2 c-6.3,0 -12.7,0 -19,0 c2.8,-4.2 4.9,-8.7 6.7,-13.4 c6.9,-17.1 13.8,-34.1 20.7,-51.2 C401.1,124.19999999999999 401.2,122.39999999999998 401.4,120.69999999999999 " id="svg_12"/>
	<path class="st2" d="M431.9,126.10000000000002 c3.7,-3.5 8.8,-5.5 13.9,-5.4 c11.1,0 22.1,0 33.2,0 c-0.7000000000000006,3.6 -1.5,7.1 -2.1,10.7 c-6.7,-2.6 -14,-1.8 -21,-1.9 c-3,0.1 -6.5,-0.6000000000000006 -9.1,1.4 c-2.5,1.9 -3.5,5.2 -4.7,8 c-4.6,11.2 -9.2,22.4 -13.8,33.6 c-0.9,2.2 -1.8,4.4 -2,6.8 c-0.1,1.7000000000000002 1.9,2.2 3.2,2.2 c5.9,0.1 11.9,0 17.9,0 c3,0 5.9,-0.6000000000000006 8.7,-1.4 c-1.8,3.3 -3.7,6.7 -5.4,10.1 c-11.8,0.1 -23.6,0 -35.4,0.1 c-2.8,0 -6.3,-0.1 -7.8,-2.9 c-1.6,-3.6 0,-7.5 1.2,-10.9 c4.8,-11.8 9.7,-23.5 14.5,-35.3 C425.4,135.7 427.6,130.10000000000002 431.9,126.10000000000002 " id="svg_13"/>
	<path class="st2" d="M553.7,128.60000000000002 c2.9,-5.1 8.7,-7.9 14.4,-7.9 c14.3,-0.1 28.5,0 42.8,0 c-1.3,3.4 -2.7,6.8 -4,10.2 c-4.2,-1.5 -8.7,-1 -13,-1.1 c-6.5,0 -13,0 -19.5,0 c-2.3,-0.1 -4.8,0.8 -5.8,3.1 c-1.3,3.1 -2.9,6.2 -3.4,9.6 c-0.1,2.1 2.3,2.1 3.7,2.2 c6.8,0.1 13.5,0 20.3,0 c3,0 6.6,0.8 8.2,3.8 c1.3,3 0.1,6.3 -0.9,9.2 c-2.5,6.4 -5.4,12.7 -8,19.1 c-1.7000000000000002,4.3 -4.2,8.4 -8.2,10.9 c-3.1,2.1 -7,2.6 -10.6,2.6 c-13.4,0 -26.8,0 -40.2,0 c0.9,-3.6 1.9,-7.3 2.9,-10.9 c2.2,1 4.5,1.7000000000000002 6.9,1.8 c8.1,0.1 16.1,-0.1 24.2,0.2 c2.4,-0.1 5.3,-0.1 6.9,-2.2 c1.7000000000000002,-2.7 2.5,-5.8 3.7,-8.8 c0.6000000000000006,-1.9 1.7000000000000002,-4.1 0.8,-6.1 c-6.6,-0.5 -13.3,0 -20,-0.4 c-3.8,-0.3000000000000003 -8.9,1.4 -11.4,-2.6 c-2.1,-4.4 -0.1,-9.5 1.7000000000000002,-13.6 C548,141.39999999999998 550.2,134.60000000000002 553.7,128.60000000000002 " id="svg_14"/>
</g></g></svg>