<svg id="svg" xmlns="http://www.w3.org/2000/svg" xmlns:xlink="http://www.w3.org/1999/xlink" width="400" height="94.66484268125856" viewBox="0, 0, 400,94.66484268125856"><g id="svgg"><path id="path0" d="M244.955 10.534 C 244.783 11.813,244.480 14.521,244.282 16.553 L 243.922 20.246 245.901 20.246 C 247.505 20.246,247.880 20.450,247.880 21.325 C 247.880 22.560,243.687 65.687,243.184 69.631 L 242.852 72.230 263.150 72.230 C 274.313 72.230,283.449 72.168,283.450 72.093 C 283.452 72.018,284.435 62.230,285.636 50.342 C 286.837 38.454,287.820 28.543,287.822 28.317 C 287.824 28.092,283.176 27.907,277.493 27.907 L 267.162 27.907 266.788 33.242 C 266.582 36.176,266.290 39.008,266.139 39.535 C 265.910 40.329,266.224 40.492,267.978 40.492 L 270.092 40.492 269.142 49.658 C 268.619 54.699,268.177 59.131,268.159 59.508 C 268.136 59.985,266.998 60.192,264.398 60.192 L 260.670 60.192 263.280 34.610 C 264.715 20.540,265.900 8.844,265.913 8.618 C 265.926 8.393,261.287 8.208,255.602 8.208 L 245.268 8.208 244.955 10.534 M289.263 10.807 C 289.094 12.237,288.801 14.945,288.611 16.826 L 288.265 20.246 290.234 20.246 C 291.828 20.246,292.202 20.451,292.202 21.325 C 292.202 22.560,288.010 65.687,287.507 69.631 L 287.175 72.230 295.409 72.230 L 303.644 72.230 303.934 70.451 C 304.094 69.473,305.463 56.115,306.977 40.766 C 308.490 25.417,309.876 11.813,310.057 10.534 L 310.384 8.208 299.977 8.208 L 289.569 8.208 289.263 10.807 M161.731 17.647 C 161.572 18.625,161.065 23.488,160.605 28.454 C 160.144 33.420,159.652 38.166,159.511 39.002 L 159.256 40.521 167.590 40.370 L 175.923 40.219 176.838 31.190 C 177.340 26.224,177.907 20.746,178.096 19.015 L 178.440 15.869 170.230 15.869 L 162.019 15.869 161.731 17.647 M7.088 29.685 C 7.074 30.663,6.141 40.636,5.015 51.847 L 2.967 72.230 23.298 72.230 L 43.629 72.230 44.271 65.253 C 44.624 61.416,45.031 57.722,45.175 57.045 L 45.438 55.814 36.979 55.814 L 28.520 55.814 28.350 57.866 L 28.181 59.918 24.487 60.080 C 21.746 60.200,20.792 60.059,20.788 59.533 C 20.784 59.143,21.201 54.699,21.714 49.658 L 22.645 40.492 26.431 40.492 L 30.218 40.492 29.858 42.408 L 29.499 44.323 38.005 44.323 C 45.740 44.323,46.512 44.236,46.516 43.365 C 46.521 42.286,47.420 33.778,47.903 30.233 L 48.220 27.907 27.667 27.907 L 7.114 27.907 7.088 29.685 M51.750 29.138 C 51.453 30.572,47.581 69.850,47.596 71.272 C 47.605 72.141,48.365 72.230,55.814 72.230 C 62.016 72.230,64.022 72.063,64.021 71.546 C 64.018 70.244,66.804 42.950,67.064 41.724 C 67.303 40.598,67.635 40.492,70.919 40.492 L 74.512 40.492 74.127 44.596 L 73.743 48.700 81.990 48.700 L 90.238 48.700 90.522 46.922 C 90.678 45.944,91.060 42.435,91.370 39.124 C 91.680 35.814,92.079 31.936,92.257 30.506 L 92.579 27.907 72.292 27.907 L 52.004 27.907 51.750 29.138 M96.059 30.233 C 95.598 33.651,91.929 70.073,91.929 71.237 C 91.929 72.092,108.330 72.948,108.348 72.093 C 108.349 72.018,109.333 62.230,110.534 50.342 C 111.734 38.454,112.718 28.543,112.719 28.317 C 112.721 28.092,109.044 27.907,104.548 27.907 L 96.373 27.907 96.059 30.233 M116.307 30.233 C 115.866 33.504,113.817 54.208,113.817 55.387 C 113.817 56.291,114.665 56.361,125.581 56.361 L 137.346 56.361 137.346 58.276 L 137.346 60.192 125.371 60.192 L 113.396 60.192 113.059 63.201 C 112.874 64.856,112.571 67.565,112.386 69.220 L 112.049 72.230 132.358 72.230 C 143.528 72.230,152.668 72.168,152.668 72.093 C 152.668 72.018,153.284 65.923,154.036 58.550 C 154.787 51.176,155.403 44.836,155.403 44.460 C 155.403 43.933,152.619 43.776,143.301 43.776 L 131.199 43.776 131.529 42.544 C 131.711 41.867,131.863 41.129,131.867 40.903 C 131.871 40.677,137.263 40.492,143.849 40.492 L 155.825 40.492 156.151 37.620 C 156.331 36.040,156.637 33.208,156.832 31.327 L 157.187 27.907 136.903 27.907 L 116.620 27.907 116.307 30.233 M180.027 28.591 C 180.027 28.967,179.411 35.308,178.659 42.681 C 177.907 50.055,177.292 56.149,177.292 56.224 C 177.292 56.300,182.737 56.361,189.394 56.361 L 201.496 56.361 201.166 57.592 C 200.984 58.269,200.832 59.131,200.828 59.508 C 200.823 60.034,198.057 60.192,188.847 60.192 L 176.874 60.192 176.493 64.979 C 176.283 67.613,175.981 70.321,175.821 70.999 L 175.531 72.230 195.826 72.230 L 216.121 72.230 216.379 70.999 C 216.720 69.372,218.878 47.124,218.878 45.242 L 218.878 43.776 207.114 43.776 L 195.349 43.776 195.349 42.134 L 195.349 40.492 207.328 40.492 C 221.220 40.492,219.641 41.410,220.279 32.969 L 220.661 27.907 200.344 27.907 C 184.456 27.907,180.027 28.056,180.027 28.591 M311.902 28.747 C 311.902 29.784,308.180 67.991,307.839 70.451 L 307.593 72.230 327.780 72.230 L 347.967 72.230 348.255 70.451 C 348.611 68.263,352.402 30.194,352.397 28.865 C 352.394 27.970,351.064 27.907,332.148 27.907 C 314.311 27.907,311.902 28.007,311.902 28.747 M354.390 48.837 C 353.268 60.349,352.233 70.321,352.088 70.999 L 351.826 72.230 362.169 72.230 L 372.513 72.230 372.873 68.536 C 373.071 66.505,373.374 63.796,373.546 62.517 L 373.859 60.192 371.806 60.192 L 369.753 60.192 370.091 56.772 C 370.276 54.891,370.716 50.458,371.067 46.922 L 371.706 40.492 375.504 40.492 L 379.303 40.492 378.997 42.544 C 378.829 43.673,378.058 51.122,377.285 59.097 C 376.512 67.073,375.763 74.147,375.620 74.818 C 375.363 76.030,375.273 76.040,363.467 76.186 L 351.573 76.334 351.184 80.164 C 350.971 82.271,350.693 85.041,350.568 86.320 L 350.340 88.646 370.508 88.646 L 390.677 88.646 390.937 87.415 C 391.233 86.010,396.738 30.328,396.725 28.865 C 396.717 27.970,395.390 27.907,376.573 27.907 L 356.429 27.907 354.390 48.837 M334.680 41.997 C 334.521 42.825,334.117 46.703,333.784 50.616 C 332.897 61.022,333.301 60.192,329.128 60.192 C 326.118 60.192,325.580 60.047,325.573 59.234 C 325.568 58.707,325.977 54.275,326.482 49.384 L 327.401 40.492 331.186 40.492 L 334.971 40.492 334.680 41.997 " stroke="none" fill="#fff" fill-rule="evenodd"></path></g></svg>